<svg width="180" height="151" viewBox="0 0 180 151" fill="none" xmlns="http://www.w3.org/2000/svg">
<path d="M179.9 150.103H99.1L99.8 146.703L106.8 111.103L150.6 95.5031L179.9 150.103Z" fill="#CF2600"/>
<path d="M109.5 150.103H67.7V147.303L99.7999 146.703L106.8 146.503L107.4 147.303L108.5 148.803L109.5 150.103Z" fill="#082859"/>
<path d="M113.1 44.303C113.1 44.303 111.4 45.003 108.9 45.303C108 45.403 107 45.403 106 45.403C105.3 45.403 104.7 45.303 104 45.103L102 38.003L101.2 31.103C101.2 31.103 101.8 31.703 102.8 32.703C104 33.903 105.6 35.503 107.2 37.103C109.5 39.303 111.7 41.303 112.5 41.703L113.1 44.303Z" fill="#EBDBBD"/>
<path d="M102.7 32.803C102.6 32.903 102.5 33.103 102.4 33.303C102.3 33.403 102.3 33.503 102.2 33.603L100.1 30.403L98.7 26.903V23.003C98.7 23.003 104.3 24.203 104.8 25.003C105.3 25.603 105.9 28.303 102.7 32.803Z" fill="#EB7055"/>
<path d="M68.1 33.003C68.1 33.003 62.9 34.603 63.5 38.003C64.1 41.303 69.8 41.603 69.8 41.603L71.2 36.003L68.1 33.003Z" fill="#EB7055"/>
<path d="M63 23.603L67.4 33.503C67.4 33.503 66.9 34.003 66.9 35.303C66.9 35.303 67.8 36.203 69.2 36.503C69.2 36.503 69.4 38.103 67.9 41.603C67.9 41.603 68.3 43.803 70.6 49.003L71.5 53.803L73 60.903L75.7 66.203L85.3 60.603L96.5 57.303L100.9 53.603C100.9 53.603 103.3 46.403 103.2 46.003C103.1 45.603 102.4 37.903 102.4 37.903L99.3 28.103L96.5 23.703L92.9 13.903L88.7 10.103L79.6 12.503L66.4 20.003L63 23.603Z" fill="#F4AD75"/>
<path d="M104 61.403L113.1 67.103L105.2 75.103L104 61.403Z" fill="#941D27"/>
<path d="M23.2 109.203C23.1 109.703 22.9 110.203 22.7 110.603C22.6 110.803 22.5 110.903 22.5 111.103C21.4 113.303 19.8 114.803 19.8 114.803L18 112.503L17.1 111.403C18 110.803 19.5 109.703 21 108.603C21.3 108.303 21.7 108.103 22 107.803L23.2 109.203Z" fill="#EE8660"/>
<path d="M24.3 105.803C23.7 106.403 22.9 107.103 22.1 107.803C21.8 108.103 21.4 108.303 21.1 108.603C19.6 109.703 18.1 110.803 17.2 111.403C16.9 111.603 16.7 111.803 16.5 111.803C16.4 111.803 16.4 111.903 16.4 111.903C13.1 109.703 11.1 106.703 11.1 106.703L12.6 104.603L12.9 104.103L13 103.903C13.1 104.003 13.3 104.103 13.4 104.203L13.5 104.303L13.6 104.403L13.7 104.503C13.8 104.603 13.8 104.603 13.9 104.703C14 104.803 14 104.803 14.1 104.803C14.2 104.803 14.2 104.903 14.3 104.903C14.4 104.903 14.4 105.003 14.5 105.003L14.6 105.103C14.7 105.103 14.7 105.203 14.8 105.203C14.8 105.203 14.9 105.203 14.9 105.303L15 105.403C15.1 105.503 15.2 105.503 15.3 105.603C15.5 105.703 15.7 105.903 15.9 106.003C15.9 106.003 16 106.003 16 106.103C16.1 106.203 16.2 106.203 16.3 106.303C16.4 106.403 16.5 106.403 16.6 106.403C16.7 106.403 16.7 106.503 16.8 106.503C16.9 106.503 16.9 106.603 17 106.603C17.1 106.703 17.3 106.703 17.4 106.803H17.5H17.6C17.6 106.803 17.6 106.803 17.7 106.803C17.8 106.803 17.9 106.903 18 106.903C18 106.903 18 106.903 18.1 106.903H18.2C18.3 106.903 18.4 107.003 18.4 107.003C18.5 107.003 18.5 107.003 18.6 107.103C18.7 107.103 18.8 107.203 18.9 107.203C19.5 106.903 20.2 106.503 20.8 106.003C20.9 106.003 20.9 105.903 21 105.903C21.1 105.903 21.1 105.803 21.2 105.803C21.3 105.803 21.3 105.703 21.4 105.703C21.5 105.703 21.5 105.603 21.6 105.603C21.7 105.603 21.7 105.503 21.8 105.503C21.9 105.503 21.9 105.403 22 105.303L22.1 105.203C22.2 105.203 22.2 105.103 22.3 105.103C22.4 105.003 22.4 105.003 22.5 104.903C23 104.503 23.4 104.103 23.8 103.803L24.3 105.803Z" fill="#EF8660"/>
<path d="M25 102.803C25 102.803 24.5 103.303 23.7 104.003C22.9 104.703 21.9 105.603 20.9 106.303C20.2 106.803 19.6 107.203 19 107.503C19 107.503 16.6 106.903 13.1 104.003C12.6 103.603 12.1 103.103 11.6 102.603C11.6 102.603 12.5 99.003 14.5 96.203C14.5 96.203 15.6 96.1031 17.1 96.1031L17.6 95.1031C17.6 95.1031 11.5 92.103 4.9 90.203C4.9 90.203 1.3 86.803 0 80.803L2.3 79.0031C2.3 79.0031 10.6 86.0031 16.2 89.1031C19.4 90.9031 21.8 92.1031 23.4 92.9031C20.5 95.1031 18.1 97.903 16.4 101.103C18 102.703 19.9 104.403 22.1 104.703C22.9 103.303 23.7 102.003 24.6 100.603L24.9 102.103L25 102.803Z" fill="#F79565"/>
<path d="M24.3 99.503L24.6 100.503C23.8 101.903 23 103.203 22.1 104.603C19.8 104.303 18 102.703 16.4 101.003C18 97.803 20.5 95.003 23.4 92.803C24.6 93.403 25.2 93.703 25.2 93.703L23.9 97.903L24.3 99.503Z" fill="#F79565"/>
<path d="M36.6 119.103L32.3 123.103L28.9 114.503L26.9 114.203C26.9 114.203 25.5 113.003 24.1 111.803C23.6 111.403 23.1 110.903 22.7 110.603C22.9 110.203 23.1 109.703 23.2 109.203L22 107.803C22.9 107.103 23.7 106.403 24.2 105.803L23.7 104.003C24.5 103.303 25 102.803 25 102.803L24.3 100.103V100.003L21.9 103.403C19.5 102.903 17.9 101.103 17.9 101.103C19.2 97.303 21.5 94.503 23.3 92.903C24.6 91.703 25.7 91.103 25.7 91.103C29 97.303 32.4 98.403 32.4 98.403L32.1 109.303L36.6 119.103Z" fill="#F79565"/>
<path d="M66.3 133.403L55.2 150.103H42.9C40.3 143.803 35.5 132.503 32.6 125.303L30.5 126.603L30.3 126.303L29.1 124.503L36.7 117.703L44.7 131.603C44.7 131.603 43.3 119.303 44 115.403L48.9 109.803L49.2 109.503C49.2 109.503 48.9 107.903 48.6 105.403C48.4 103.303 48.2 100.503 48.3 97.403L58 89.203L63.9 120.303L66.3 133.403Z" fill="#768EAD"/>
<path d="M153 86.403L152.2 92.003L148.4 99.003L134.1 116.103L106 143.103L105.4 143.903L104.5 145.203L100.9 145.103L67.9 144.403L66.5 142.103L63.6 137.203L59.4 130.003L56.5 125.103L55.9 124.103C53.7 105.203 55.9 88.403 55.9 88.403C66.1 80.203 73.6 77.403 73.6 77.403C73.6 77.403 113.3 66.603 123.6 70.503C128.2 72.303 133.4 74.403 137.6 76.203C142.8 78.403 146.7 80.103 146.7 80.103C150.7 82.303 153 86.403 153 86.403Z" fill="#44ABF5"/>
<path d="M85.7 82.603L88.0999 68.403L81.2 71.103L78.7 75.703L80.4999 82.603H85.7Z" fill="#941D27"/>
<path d="M106.8 70.603L89.8 81.003H83.4V73.603C83.7 73.803 84.1 74.003 84.4 74.303C84.4 74.303 85.2 73.803 86.3 72.803C87.6 71.603 89.4 69.703 90.8 66.803C90.8 66.903 89.6 70.703 89.8 72.403C89.8 72.403 90.5 71.903 91.5 71.103C94.7 68.603 101.7 63.103 104.9 58.003L105.1 59.203L105.5 62.103L106 65.903L106.3 68.103L106.8 70.603Z" fill="#F4AD75"/>
<path d="M88.1 68.403L83.4 72.703V68.403L85.7 66.803L88.1 68.403Z" fill="#9C5558"/>
<path d="M83.4 72.903C83.3 72.903 83.3 72.803 83.3 72.803V68.403C83.3 68.403 83.3 68.303 83.4 68.303L85.7001 66.803H85.8L88.2001 68.303L88.3 68.403V68.503L83.4 72.903C83.5 72.903 83.4 72.903 83.4 72.903ZM83.5 68.403V72.403L87.9 68.303L85.7001 66.903L83.5 68.403Z" fill="#231F20"/>
<path d="M121.1 66.503L94.6 84.903L80.1 85.603L73.6 75.103L84.1 65.903L85.7 66.803L88.1 68.403L83.4 72.703L81.3 74.703L83.2 81.003H89.8L106.8 70.603L110.6 68.303L106.1 66.003L105.2 59.303L121.1 66.503Z" fill="#CF2600"/>
<path d="M151.5 86.203L149.9 89.303C149.9 89.303 138.6 106.403 131 115.303C129.4 117.103 128 118.703 126.9 119.603C125.3 120.903 123.8 122.103 122.4 123.103C118.1 126.203 115.3 127.603 115.3 127.603C115.3 127.603 116.8 100.903 141.9 83.603C143.3 82.703 144.7 81.703 146.2 80.903C146.3 81.003 151 83.903 151.5 86.203Z" fill="#150033"/>
<path d="M156.9 119.603C156.9 120.003 156.8 120.503 156.7 121.103C156.5 122.203 156.3 123.603 156 125.103C155.2 129.303 154 134.503 152.8 139.103C151.3 145.203 150 150.203 150 150.203H137.7C134.6 143.803 132.4 136.803 131.4 133.303C131 131.903 130.8 131.103 130.8 131.103C130.9 129.203 131.1 127.303 131.5 125.503C132.5 120.403 134.1 116.703 134.1 116.703V116.203C133 116.103 132 115.703 131.1 115.403C129.9 114.903 129 114.503 129 114.503L122.6 123.203C122.5 123.203 122.5 123.303 122.4 123.303C118.2 126.303 115.5 127.703 115.5 127.703C115.5 127.703 116.8 103.503 138.6 86.303C139.7 85.403 140.9 84.603 142.1 83.703L144.6 84.103H144.9C147.2 85.603 148.9 87.303 150.2 88.903C151.1 90.003 151.8 91.003 152.3 91.903C153.5 94.103 153.9 95.703 153.9 95.703L152.2 104.703L152 105.603C152.2 106.103 152.5 106.503 152.7 107.003C153.4 108.403 154 109.803 154.5 111.003C156.7 116.303 156.9 119.603 156.9 119.603Z" fill="#768EAD"/>
<path d="M109 142.803V145.703L108 145.803V147.403H65.5C65.5 147.403 65.1 146.403 64.6 145.403C64.2 144.403 63.8 143.403 63.8 143.303H67.1H76L85.5 143.003C93.7 143.503 102.1 143.303 106.3 143.103C108 142.803 109 142.803 109 142.803Z" fill="#768EAD"/>
<path d="M91.4 141.703L91.2 143.003L90.2 148.403H75.4L74 143.103L73.5 141.403L91.4 141.703Z" fill="#F4CE46"/>
<path d="M76.5 92.903C75.3 96.303 72.8 103.303 71.5 109.103C71.1 110.803 72.5 112.503 74.2 112.403L81.1 112.003C81.9 112.003 82.5 112.703 82.2 113.503L77.4 132.703C76.9 134.603 79.4 135.803 80.6 134.203L97.1 111.703C97.8 110.803 97.6 109.603 96.8 108.803C94 106.203 88.5 99.603 94.4 91.203C94.8 90.703 94.4 89.903 93.7 90.003L79.4 90.803C78.1 90.803 76.9 91.603 76.5 92.903Z" fill="#F4CE46"/>
<path d="M73.6 75.103L73.7 77.603L80.1 85.603L73.6 75.103Z" fill="#941D27"/>
<path d="M94.6 84.9031L121.1 66.5031L126.7 71.803L123.7 70.703L94.6 84.9031Z" fill="#941D27"/>
<path d="M104.6 40.503L102.5 33.503L100.3 26.003L99.7 27.503C99.7 27.503 99.1 24.503 99.7 23.103L101.4 23.503C101.4 23.503 94.6 15.503 94.1 11.303C94.1 11.303 95.5 11.403 97 10.603C97 10.603 96 6.70303 92.5 6.00303L87.2 6.50303C87.2 6.50303 88.4 4.50303 88.7 2.60303C88.7 2.60303 85.1 0.203032 82 0.303032C81.8 0.303032 81.7 0.303032 81.5 0.303032C74 0.603032 70.2 0.703032 66.1 3.80303C66.1 3.80303 66.7 0.803032 65.8 0.203032C64.9 -0.396968 61.6 3.70303 60 6.50303C59.2 7.90303 58.8 10.503 58.8 10.503C58.8 10.503 58.4 8.90303 56 7.50303C56 7.50303 54.7 9.50303 56 13.903C56 13.803 54.5 11.403 53.3 12.303C52.5 12.903 56.1 18.503 58.2 21.803C59.1 23.103 59.7 24.003 59.7 24.003C59.7 24.003 65.3 26.603 70.8 25.303C70.8 25.303 72.1 24.503 73.9 23.103C76.6 21.103 80.7 18.003 83.7 14.903C83.7 14.903 85.4 15.803 86.8 15.903L88.5 13.903C88.5 13.903 88.9 14.303 88.5 16.303L90.1 13.903C90.1 13.903 91.1 15.403 90.8 16.803C90.8 16.803 92.5 16.203 94.4 21.403C95.6 24.603 95.1 26.703 95.1 26.703C95.1 26.703 98 26.803 99 29.803C100 32.803 101.1 37.703 101.1 37.703C101.1 37.703 102.6 43.103 98.7 44.703L97.7 41.703C97.7 41.703 97.1 41.503 96.1 41.203C94.6 40.703 92.3 40.003 90.3 39.303C89.7 39.103 89.1 38.903 88.5 38.703C85.2 37.503 84.9 37.303 80.4 39.603C75.9 41.903 73.1 43.303 71.3 45.403C69.5 47.503 66.3 55.903 66.3 55.903C66.3 55.903 67.3 56.103 68.1 55.403C68.1 55.403 68.3 55.803 67.2 57.303L69.8 55.603C69.8 55.603 71.1 66.603 78.9 73.003L79 70.703C79 70.703 79.3 71.303 83.1 73.803C83.4 74.003 83.8 74.203 84.1 74.503C84.1 74.503 84.9 74.003 86 73.003C87.3 71.803 89.1 69.903 90.5 67.003C90.5 67.103 89.3 70.903 89.5 72.603C89.5 72.603 90.2 72.103 91.2 71.303C94.4 68.803 101.4 63.303 104.6 58.203C104.9 57.703 105.2 57.103 105.5 56.603L105.6 56.003L106.8 49.603L104.6 40.503ZM82 56.703C81.5 58.703 81.3 59.403 81.3 59.403L75.4 62.303L75 62.503C75 62.503 71 57.703 75.8 50.403H74.6C74.6 50.403 78.4 47.203 83.4 46.103C88.4 45.003 90.4 43.103 90.4 43.103C90.4 43.103 90.9 43.103 91.6 43.103C92.4 43.203 93.3 43.403 93.9 44.003C94.9 45.103 98.4 47.103 98.8 49.303C99.1 50.703 99 51.803 98.9 52.503C98.8 52.903 98.8 53.203 98.8 53.203L94.4 54.303L89.4 55.603C89.4 55.603 88.4 52.703 83.8 53.303C83.8 53.303 82.9 53.303 82 56.703Z" fill="#EBDBBD"/>
<path d="M78.7 27.903C78.7 27.903 76.3 32.403 73.6 45.903C73.6 45.903 76.4 47.403 78.7 44.203C81 41.003 83.1 35.703 78.7 27.903Z" fill="#F58759"/>
<path d="M114.3 41.703L125.5 34.503C125.5 34.503 126.1 38.603 125 40.403L121 41.703C121 41.703 121.5 45.203 120.3 48.203L114 45.503L114.3 41.703Z" fill="#D7C3A8"/>
<path d="M113.8 42.803L123.5 39.903C123.5 39.903 124 42.503 123.5 44.503L113.6 44.103L113.8 42.803Z" fill="#EBDBBD"/>
<path d="M112.4 41.103L115.7 40.303L113.6 46.303L112.4 41.103Z" fill="#2D0842"/>
<path d="M113.1 39.303L114.6 46.903L110.6 45.903L112.1 39.303H113.1Z" fill="#420C62"/>
<path d="M93.7999 37.203C95.7882 37.203 97.3999 35.5465 97.3999 33.503C97.3999 31.4596 95.7882 29.803 93.7999 29.803C91.8117 29.803 90.2 31.4596 90.2 33.503C90.2 35.5465 91.8117 37.203 93.7999 37.203Z" fill="#FF8E66"/>
<path d="M123.5 41.503C124.1 41.703 124.7 41.903 125.3 42.103C125.9 42.303 126.5 42.503 127.1 42.703C127 42.603 126.9 42.503 126.9 42.403C126.9 42.503 126.9 42.503 126.9 42.603C126.9 42.903 127.4 43.103 127.5 42.803C127.6 42.503 127.7 42.203 127.3 42.003C127.2 41.903 127.1 42.003 127 42.103C126.9 42.203 126.9 42.403 126.9 42.503C127.1 42.603 127.3 42.603 127.5 42.703C127.5 42.603 127.5 42.603 127.5 42.503C127.5 42.403 127.4 42.203 127.3 42.203C126.7 42.003 126 41.903 125.3 41.803C124.7 41.703 124.1 41.503 123.5 41.403C123.3 41.303 123.3 41.503 123.5 41.503Z" fill="#EBDBBD"/>
<path d="M123.6 41.403C124.2 41.503 124.8 41.503 125.3 41.503C125.9 41.503 126.5 41.403 127.1 41.303C127.3 41.303 127.3 41.103 127.3 40.903C127.3 40.703 127.2 40.703 127.1 40.603C127 40.403 126.7 40.503 126.6 40.703C126.5 41.003 126.5 41.203 126.7 41.403C126.8 41.503 126.9 41.503 127 41.503C127.3 41.403 127.3 41.203 127.3 41.003C127.4 40.703 126.9 40.503 126.7 40.803C126.6 41.003 126.6 41.103 126.6 41.303C126.7 41.603 127 41.603 127.2 41.403C127.2 41.403 127.2 41.403 127.2 41.303C127.3 41.103 127.2 40.803 126.9 40.903C126.8 40.903 126.7 41.003 126.6 41.003C126.8 41.003 126.9 41.103 127.1 41.103C126.9 41.003 126.7 40.903 126.5 40.903V41.103C126.6 41.103 126.6 41.003 126.7 41.003H126.6C126.7 41.003 126.8 41.103 126.9 41.103C126.9 41.103 126.9 41.103 126.9 41.203C126.7 41.203 126.5 41.203 126.4 41.203C126.4 41.203 126.4 41.303 126.5 41.303C126.6 41.203 126.6 41.003 126.7 40.903C126.1 41.003 125.5 41.103 124.9 41.203C124.4 41.303 123.8 41.303 123.3 41.403C123.5 41.103 123.5 41.303 123.6 41.403Z" fill="#EBDBBD"/>
<path d="M73.8 34.803C74.7 34.103 75.4 33.103 75.4 31.903C75.4 31.503 75.3 31.003 74.9 30.703C74.5 30.503 73.9 30.603 73.6 31.003C73 31.803 73.8 33.403 74.8 32.803C75.7 32.303 75.2 30.403 74.2 30.903C73.7 31.103 73.6 31.903 73.9 32.303C74.1 32.503 74.4 32.503 74.6 32.403C74.9 32.203 74.9 31.903 74.9 31.603C74.8 31.103 74 31.303 74.1 31.803C74.2 31.803 74.3 31.703 74.4 31.703C74.5 31.903 74.6 31.903 74.6 31.803C74.6 31.703 74.6 31.703 74.4 31.803L74.5 32.103C74.5 32.403 74.3 32.303 74.2 32.103C73.9 31.503 74.8 31.103 75 31.903C75.1 32.403 74.8 33.003 74.6 33.403C74.4 33.803 74.1 34.303 73.8 34.803C73.7 34.803 73.7 34.803 73.8 34.803Z" fill="#231F20"/>
<path d="M85.8001 29.1031C85.0001 28.9031 83.9001 29.0031 83.4001 28.2031C83.2001 27.8031 83.2001 27.0031 83.8001 27.4031C83.9001 27.5031 84.1001 27.7031 84.0001 27.9031C83.7001 28.3031 83.6001 27.5031 83.6001 27.5031C83.7001 27.5031 83.8001 27.6031 83.9001 27.6031C83.9001 27.7031 83.9001 27.8031 83.9001 27.8031C83.9001 27.6031 83.8001 27.4031 83.6001 27.4031C83.5001 27.4031 83.4001 27.5031 83.3001 27.6031C83.2001 27.7031 83.2001 27.8031 83.3001 28.0031C83.3001 28.2031 83.5001 28.2031 83.7001 28.3031C84.3001 28.4031 84.5001 27.5031 84.0001 27.2031C83.5001 26.8031 82.9001 27.4031 83.0001 27.9031C83.1001 28.4031 83.6001 28.8031 84.1001 28.7031C84.7001 28.6031 85.0001 28.0031 84.8001 27.5031C84.6001 27.0031 83.9001 26.5031 83.4001 26.7031C82.9001 26.9031 82.6001 27.4031 82.7001 27.9031C82.9001 29.2031 84.7001 29.7031 85.8001 29.3031C85.9001 29.2031 85.9001 29.1031 85.8001 29.1031Z" fill="#231F20"/>
<path d="M70.8 32.5031C71 31.9031 71.3 31.3031 71.7 30.7031C71.9 30.5031 72.1 30.2031 72.3 30.1031C72.5 29.9031 72.8 29.8031 73.1 29.7031C73.4 29.5031 73.3 29.1031 72.9 29.0031C72.3 29.0031 71.6 29.7031 71.3 30.2031C70.9 30.9031 70.8 31.7031 70.7 32.5031C70.6 32.6031 70.8 32.6031 70.8 32.5031Z" fill="#9E4F2E"/>
<path d="M85.9 25.0031C84.9 24.2031 83.6 24.1031 82.3 24.4031C82.2 24.4031 82.1 24.5031 82 24.7031V24.8031C82 24.9031 82 25.0031 82.1 25.0031C82.3 25.2031 82.5 25.1031 82.8 25.1031C83.1 25.0031 83.5 25.0031 83.8 25.0031C84.5 25.0031 85.2 25.0031 85.8 25.2031C86 25.2031 86 25.1031 85.9 25.0031Z" fill="#9E4F2E"/>
<path d="M74.4 26.6031C75.3 26.9031 76.4 26.4031 77.2 25.9031C77.6 25.7031 78 25.4031 78.4 25.1031C78.7 24.8031 79.1 24.5031 79.2 24.0031C79.2 23.9031 79.0999 23.8031 78.9999 23.9031C78.5999 24.0031 78.3999 24.4031 78.0999 24.7031C77.7999 25.0031 77.3999 25.3031 76.9999 25.5031C76.5999 25.7031 76.2 25.9031 75.7 26.0031C75.3 26.1031 74.8 26.2031 74.4 26.3031C74.3 26.4031 74.3 26.6031 74.4 26.6031Z" fill="#DE8B57"/>
<path d="M74.5001 25.3031C75.2001 25.4031 76.0001 24.9031 76.5001 24.6031C76.8001 24.4031 77.1001 24.2031 77.3001 24.0031C77.5001 23.8031 77.9001 23.5031 78.0001 23.2031C78.0001 23.1031 77.9001 23.0031 77.8001 23.0031C77.5001 23.1031 77.4001 23.4031 77.2001 23.6031C76.9001 23.9031 76.6001 24.1031 76.3001 24.3031C76.0001 24.5031 75.7001 24.7031 75.3001 24.8031C75.0001 24.9031 74.7001 25.0031 74.4001 25.2031C74.3001 25.1031 74.4001 25.2031 74.5001 25.3031Z" fill="#DE8B57"/>
<path d="M88.9 45.803C87.8 47.503 86.3 48.803 84.6 49.903C82.9 50.903 81 51.503 79 51.703C79.1 51.803 79.2 51.903 79.3 52.003C79.3 51.803 79.3 51.603 79.4 51.403C79.2 51.303 79 51.303 78.8 51.203C78.7 51.503 78.7 51.703 78.6 52.003C78.8 52.103 79 52.103 79.2 52.203C79.3 52.003 79.3 51.703 79.3 51.503C79.3 51.103 78.7 51.103 78.7 51.503C78.7 51.703 78.7 51.903 78.7 52.103C78.7 52.503 79.2 52.503 79.3 52.203C79.4 52.003 79.4 51.803 79.5 51.603C79.6 51.203 79 51.003 78.9 51.403C78.8 51.703 78.7 52.003 78.7 52.303C78.7 52.703 79.3 52.703 79.4 52.303C79.4 52.003 79.5 51.703 79.5 51.503C79.5 51.103 78.9 51.103 78.9 51.403C78.8 51.703 78.8 52.003 78.7 52.203C78.9 52.203 79.1 52.203 79.3 52.203C79.2 51.903 79.4 51.803 79.5 51.503C79.6 51.303 79.4 51.103 79.2 51.103C78.7 51.303 78.6 51.803 78.7 52.303C78.8 52.603 79.3 52.603 79.3 52.303C79.4 52.003 79.4 51.703 79.5 51.503C79.3 51.503 79.1 51.403 78.9 51.403C78.9 51.703 78.8 52.003 78.8 52.203C79 52.203 79.2 52.203 79.5 52.203C79.5 52.003 79.6 51.703 79.7 51.503C79.5 51.403 79.3 51.403 79.1 51.303C79 51.503 79 51.703 78.9 51.903C79.1 51.903 79.3 52.003 79.5 52.003C79.5 51.803 79.5 51.603 79.5 51.403C79.3 51.403 79.1 51.403 78.9 51.403C78.9 51.603 78.9 51.803 78.9 51.903C78.8 52.303 79.4 52.403 79.5 52.103C79.6 51.803 79.6 51.603 79.7 51.303C79.8 50.903 79.2 50.803 79.1 51.103C79 51.303 79 51.603 79 51.803C79 51.903 79.1 52.103 79.3 52.103C83.3 51.603 87.2 49.203 89.3 45.703C89.1 45.803 89 45.703 88.9 45.803Z" fill="#231F20"/>
<path d="M81.5 12.003C81.7 12.403 81.9 12.803 82.2 13.203C82.4 13.503 82.6 14.003 83 14.103C83.1 14.103 83.2 14.003 83.2 13.903C83.2 13.503 82.9 13.203 82.6 13.003C82.3 12.603 82 12.303 81.7 12.003C81.6 11.803 81.5 11.903 81.5 12.003Z" fill="#D1BB94"/>
<path d="M52.8999 144.203C51.6999 142.303 50.5999 140.503 49.4999 138.603C48.8999 137.703 48.2999 136.803 47.7999 135.903C47.4999 135.403 47.1999 135.003 46.8999 134.503C46.5999 134.103 46.3999 133.503 45.9999 133.203C45.7999 133.003 45.4999 133.203 45.5999 133.403C45.6999 133.903 46.0999 134.303 46.3999 134.703C46.6999 135.203 46.9999 135.603 47.2999 136.103C47.8999 137.003 48.4999 137.903 49.0999 138.803C50.2999 140.603 51.6999 142.403 52.8999 144.203C52.8999 144.303 52.7999 144.403 52.8999 144.203Z" fill="#547896"/>
<path d="M15.7 101.603C16 101.603 16.4 101.503 16.7 101.503C17 101.403 17.4 101.403 17.6 101.203C17.7 101.103 17.7 101.003 17.6 100.903C17.3 100.703 16.9 100.903 16.6 101.003C16.3 101.103 15.9 101.203 15.7 101.403C15.6 101.503 15.6 101.603 15.7 101.603Z" fill="#EF8660"/>
<path d="M26.8 108.403C26.6 107.903 26.3 107.503 26 107.003C25.8 106.603 25.6 106.003 25.2 105.703C25 105.603 24.8 105.703 24.9 105.903C25 106.403 25.4 106.903 25.7 107.303C26 107.703 26.3 108.103 26.6 108.603C26.7 108.603 26.8 108.503 26.8 108.403Z" fill="#EF8660"/>
<g opacity="0.28">
<path opacity="0.28" d="M107.2 49.503L105.9 56.603C103.4 62.003 95.2 68.503 91.6 71.203C93.1 68.503 93.7 65.303 94.1 62.203C94.4 60.003 94.6 57.703 94.4 55.503C94.4 55.103 94.3 54.703 94.3 54.303L98.7001 53.203C98.7001 53.203 99.2001 51.603 98.7001 49.403C98.3 47.103 94.9 45.103 93.9 44.003C93.4 43.403 92.4 43.203 91.6 43.103C91.2 41.803 90.9 40.503 90.5 39.103C93.8 40.203 97.9 41.503 97.9 41.503L98.9 44.503C102.8 42.903 101.3 37.503 101.3 37.503C101.3 37.503 100.1 32.703 99.2001 29.603C98.2001 26.603 95.3 26.503 95.3 26.503C95.3 26.503 95.8 24.403 94.6 21.203C92.7 16.003 91 16.603 91 16.603C91.3 15.203 90.3 13.703 90.3 13.703L88.7001 16.103C89.1 14.003 88.7001 13.703 88.7001 13.703L87 15.703C85.6 15.603 83.9 14.703 83.9 14.703C78.7 20.003 70.9 25.103 70.9 25.103C65.4 26.403 59.8 23.803 59.8 23.803C59.8 23.803 59.2 22.903 58.3 21.603C59.3 22.103 60.4 22.603 61.5 22.603C63.5 22.703 65.4 21.703 67.1 20.703C71.1 18.403 75.2001 16.103 79.2001 13.803C80.2001 13.203 81.3 12.203 80.8 11.203C81.5 11.603 82.1 12.103 82.8 12.503C84.5 10.603 84.9 7.80304 84.3 5.30304C83.8 3.30304 82.7 1.60304 81.5 0.0030404C81.7 0.0030404 81.8 0.0030404 82 0.0030404C85.1 -0.0969596 88.7001 2.30304 88.7001 2.30304C88.3001 4.30304 87.2001 6.20304 87.2001 6.20304L92.5 5.70304C95.9 6.70304 96.9 10.603 96.9 10.603C95.5 11.403 94 11.303 94 11.303C94.5 15.603 101.3 23.503 101.3 23.503L99.6 23.103C99 24.403 99.6 27.503 99.6 27.503L100.2 26.003L102.2 32.603L102.5 33.503C102.4 33.503 102.4 33.603 102.3 33.603C103.1 35.903 103.9 38.203 104.6 40.503L106.1 45.403L107.2 49.503Z" fill="#2D2F3B"/>
</g>
<g opacity="0.53">
<path opacity="0.53" d="M108.9 45.403C108.9 45.503 107.2 45.503 106 45.503L104.5 40.603C103.8 38.303 103 36.003 102.2 33.703C102.3 33.703 102.3 33.603 102.4 33.603L102.3 33.303C102.4 33.103 102.5 33.003 102.6 32.803C102.8 32.903 103 33.103 103.2 33.403C103.6 33.803 104 34.203 104.4 34.603C105.3 35.403 106.1 36.303 107 37.103C107.1 37.403 107.1 37.703 107.2 38.003C107.9 40.403 108.4 42.903 108.9 45.403Z" fill="#2D2F3B"/>
</g>
<g opacity="0.28">
<path opacity="0.28" d="M98.9 52.503C97.9 50.403 96.1 48.403 94.8 46.803C94.3 46.203 93.8 45.703 93.1 45.403C92.1 45.103 91.1 45.403 90.1 45.703C87.3 46.703 84.5 47.803 81.7 49.003C80.7 49.503 79.6 49.903 78.7 50.703C77.8 51.503 77.1 52.503 76.5 53.603C75.3 56.103 74.8 58.903 75.2 61.703C75.2 61.903 75.3 62.103 75.3 62.303L74.9 62.503C74.9 62.503 70.9 57.703 75.7 50.403H74.5C74.5 50.403 78.3 47.203 83.3 46.103C88.3 45.003 90.3 43.103 90.3 43.103C90.3 43.103 90.8 43.103 91.5 43.103C92.3 43.203 93.2 43.403 93.8 44.003C94.8 45.103 98.3 47.103 98.7 49.303C99.1 50.703 99 51.803 98.9 52.503Z" fill="#2D2F3B"/>
</g>
<g opacity="0.28">
<path opacity="0.28" d="M98.9 44.703L97.9 41.703C97.9 41.703 97.3 41.503 96.3 41.203C95.5 34.503 94.5 27.703 91.7 21.603C91.5 21.203 91.3 20.803 91 20.503C90.6 20.203 90 20.103 89.6 19.903C88.7 19.503 87.9 18.703 86.9 18.603C86.3 18.603 85.8 18.803 85.2 19.003C82.3 20.103 79.5 21.203 76.6 22.303C76 22.503 74.9 23.103 74 23.303C76.7 21.303 80.8 18.203 83.8 15.103C83.8 15.103 85.5 16.003 86.9 16.103L88.6 14.103C88.6 14.103 89 14.503 88.6 16.503L90.2 14.103C90.2 14.103 91.2 15.603 90.9 17.003C90.9 17.003 92.6 16.403 94.5 21.603C95.7 24.803 95.2 26.903 95.2 26.903C95.2 26.903 98.1 27.003 99.1 30.003C100.1 33.003 101.2 37.903 101.2 37.903C101.2 37.903 102.8 43.103 98.9 44.703Z" fill="#2D2F3B"/>
</g>
<g opacity="0.28">
<path opacity="0.28" d="M105.6 62.3031C102 66.0031 98.1 69.303 93.8 72.203C92.1 73.403 90.3 74.503 88.3 75.203C88.4 74.803 88.4 74.3031 88.5 73.9031C87.7 74.7031 86.6 75.2031 85.5 75.4031C85.9 74.5031 86.2 73.703 86.4 72.803C87.7 71.603 89.5 69.703 90.9 66.803C90.9 66.903 89.7 70.7031 89.9 72.4031C89.9 72.4031 90.6 71.9031 91.6 71.1031C94.8 68.6031 101.8 63.1031 105 58.0031L105.2 59.203L105.6 62.3031Z" fill="#2D2F3B"/>
</g>
<g opacity="0.28">
<path opacity="0.28" d="M78.7001 40.403C79.6001 36.403 79.4001 31.803 78.5001 27.803C81.2001 30.403 83.2001 34.303 83.3001 38.103C83.3001 39.003 83.3001 39.903 83.1001 40.803C82.5001 43.103 80.6001 45.003 78.3001 45.703C77.9001 45.803 77.0001 46.103 76.6001 45.803C76.0001 45.303 76.7001 44.903 77.0001 44.403C77.9001 43.303 78.4001 41.903 78.7001 40.403Z" fill="#2D2F3B"/>
</g>
<g opacity="0.28">
<path opacity="0.28" d="M70.8 33.3031C71.9 32.3031 72.7001 31.1031 73.2001 29.7031C73.2001 29.6031 73.3001 29.5031 73.2001 29.4031C72.6001 28.9031 71.8 30.1031 71.5 30.5031C71.3 30.8031 71.1 31.1031 71 31.5031C70.8 31.9031 70.9 33.2031 70.8 33.3031Z" fill="#2D2F3B"/>
</g>
<g opacity="0.28">
<path opacity="0.28" d="M82.3 25.203C82.3 25.103 82.3 25.003 82.3 25.003C82.4 24.903 82.5001 24.903 82.7001 24.803C83.1001 24.803 83.6 24.803 84 24.803C84.6 24.803 85.2 24.803 85.8 25.003C86.4 25.203 86.8 25.903 86.6 26.403C86.6 26.503 84.2 26.003 84 25.903C83.2 25.803 82.5 25.903 82.3 25.203Z" fill="#2D2F3B"/>
</g>
<g opacity="0.28">
<path opacity="0.28" d="M106.8 70.603L89.8001 81.003H88.2001C88.8001 80.603 89.5001 80.203 90.1001 79.803C91.7001 78.703 93.2001 77.703 94.7001 76.603C97.7001 74.503 100.7 72.303 103.7 70.103C104 69.903 105.2 69.103 106.3 68.303L106.8 70.603Z" fill="#2D2F3B"/>
</g>
<g opacity="0.28">
<path opacity="0.28" d="M153 86.4031L152.2 92.0031C151.7 91.1031 151 90.0031 150.1 89.0031C148.8 87.4031 147.1 85.703 144.8 84.203L142 83.803C116.9 101.003 115.4 127.803 115.4 127.803C115.4 127.803 118.2 126.403 122.5 123.303L128.9 114.603C128.9 114.603 129.8 115.103 131 115.503C131.9 115.803 132.9 116.103 134 116.303L121.4 128.503L115.6 134.103L106.3 143.103C103.1 143.203 97.4 143.403 91.2 143.203L91.4 141.903L73.5 141.603L74 143.303H67.1L66.5 142.403L59.4 130.303C59.9 130.203 60.5 130.103 60.9 130.003C62.1 129.603 63.3 129.203 64.5 128.703C66.9 127.703 69.3 126.603 71.7 125.503C96.7 113.603 120.8 98.3031 137.8 76.5031C143 78.7031 146.9 80.4031 146.9 80.4031C150.7 82.3031 153 86.4031 153 86.4031Z" fill="#2D2F3B"/>
</g>
<g opacity="0.28">
<path opacity="0.28" d="M63.6 137.303L55.2 150.103H54.9C55.7 147.703 56.4 145.403 57.2 143.003C57.4 142.303 57.6 141.603 57.7 140.903C57.7 140.403 57.6 139.803 57.6 139.303C57 135.503 56.5 131.603 55.9 127.803C55.4 128.203 54.8 128.603 54.3 129.003C55.2 127.803 55.9 126.603 56.7 125.303L59.6 130.203L63.6 137.303Z" fill="#2D2F3B"/>
</g>
<g opacity="0.28">
<path opacity="0.28" d="M54.2 103.403C53.3 104.703 52.2 105.903 51.2 107.103C50.4 108.003 49.8 108.903 48.9 109.803L49.2 109.503C49.2 109.503 48.9 107.903 48.6 105.403C50.4 104.503 52.3 103.903 54.2 103.403Z" fill="#2D2F3B"/>
</g>
<g opacity="0.28">
<path opacity="0.28" d="M53.4 150.103H42.9C40.3 143.803 35.5001 132.503 32.6 125.303L30.5 126.603L30.3 126.303C31.6 125.003 33.3 123.903 34.7 122.803C34.1 123.403 34.2 124.403 34.5 125.303C35.1 127.203 36.1 128.903 37.1 130.603C41.5 137.703 47.1 144.303 53.4 150.103Z" fill="#2D2F3B"/>
</g>
<g opacity="0.28">
<path opacity="0.28" d="M152.4 137.503L146.6 150.103H145.7L149.2 136.803L142.8 122.803L152.4 137.503Z" fill="#2D2F3B"/>
</g>
<g opacity="0.28">
<path opacity="0.28" d="M148.5 118.303L140.9 121.003L131.4 133.203C131 131.803 130.8 131.003 130.8 131.003C130.9 129.103 131.1 127.203 131.5 125.403C132.5 120.303 134.1 116.603 134.1 116.603V116.103C140 118.603 148.5 118.303 148.5 118.303Z" fill="#2D2F3B"/>
</g>
<g opacity="0.28">
<path opacity="0.28" d="M128.8 150.103H119L115.6 133.903L121.4 128.303L128.8 150.103Z" fill="#2D2F3B"/>
</g>
<g opacity="0.28">
<path opacity="0.28" d="M173.5 150.103H157.3L152.8 139.003C154.3 132.703 156 125.403 156.6 121.003L173.5 150.103Z" fill="#2D2F3B"/>
</g>
<g opacity="0.28">
<path opacity="0.28" d="M25.9 98.103C26 97.603 26.2 97.103 26.3 96.603C25.6 97.503 24.9 98.503 24.3 99.503C23.5 100.703 22.8 101.903 21.9 103.103C20.3 102.703 18.8 101.803 17.6 100.503C18.8 97.503 20.8 94.803 23.2 92.803C20.3 95.003 17.9 97.803 16.2 101.003C17.8 102.603 19.7 104.303 21.9 104.603C22.7 103.203 23.5 101.903 24.4 100.503C24.4 100.503 24.4 100.503 24.4 100.403C24.4 100.403 24.7 101.303 24.7 101.403C24.8 101.803 24.9 102.303 25 102.703C24.5 103.103 24 103.503 23.6 103.903C23.2 104.203 22.8 104.603 22.3 105.003C22.2 105.103 22.2 105.103 22.1 105.203C22 105.203 22 105.303 21.9 105.303L21.8 105.403C21.7 105.503 21.7 105.503 21.6 105.603C21.5 105.603 21.5 105.703 21.4 105.703C21.3 105.703 21.3 105.803 21.2 105.803C21.1 105.803 21.1 105.903 21 105.903C20.9 105.903 20.9 106.003 20.8 106.003C20.7 106.003 20.7 106.103 20.6 106.103C19.9 106.603 19.3 107.003 18.7 107.303C18.7 107.303 18.6 107.303 18.4 107.203C18.3 107.203 18.3 107.203 18.2 107.103C18.1 107.103 18 107.003 18 107.003H17.9C17.9 107.003 17.9 107.003 17.8 107.003C17.7 107.003 17.6 106.903 17.5 106.903C17.5 106.903 17.5 106.903 17.4 106.903C17.4 106.903 17.4 106.903 17.3 106.903H17.2C17.1 106.803 16.9 106.803 16.8 106.703C16.7 106.703 16.7 106.603 16.6 106.603C16.5 106.603 16.5 106.503 16.4 106.503C16.3 106.503 16.2 106.403 16.1 106.403C16 106.303 15.9 106.303 15.8 106.203C15.8 106.203 15.7 106.203 15.7 106.103C15.5 106.003 15.3 105.803 15.1 105.703C15 105.603 14.9 105.603 14.8 105.503L14.7 105.403C14.7 105.403 14.6 105.403 14.6 105.303C14.5 105.303 14.5 105.203 14.4 105.203L14.3 105.103C14.2 105.103 14.2 105.003 14.1 105.003C14 105.003 14 104.903 13.9 104.903C13.8 104.903 13.8 104.803 13.7 104.803C13.6 104.803 13.6 104.703 13.5 104.603C13.5 104.603 13.4 104.603 13.4 104.503L13.3 104.403L13.2 104.303C13.1 104.203 12.9 104.103 12.8 104.003L12.7 104.203L12.4 104.703C12.9 105.303 13.3 105.903 13.8 106.503C14.7 107.703 15.8 109.003 17.1 109.703C17.7 109.403 18.4 109.203 19 108.803C19.9 108.403 20.8 107.903 21.6 107.403C22.4 106.803 23.2 106.203 24 105.603V105.703C24 105.803 23.1 106.603 23 106.703C22.6 107.103 22.2 107.403 21.9 107.703C21.1 108.303 20.3 108.903 19.5 109.503C18.6 110.103 17.8 110.703 16.9 111.303L17.8 112.403C18.3 112.103 18.8 111.803 19.4 111.403C20.1 111.003 21.2 110.303 21.8 109.903C21.8 109.903 23.4 111.303 23.9 111.703C24.4 110.703 25.1 109.703 25.8 108.903C25.9 108.803 25.9 108.803 26 108.803C26.1 108.803 26.2 108.803 26.2 108.803C26.7 108.903 27.3 109.103 27.6 109.503C27.2 109.003 26.9 108.503 26.6 108.003C26.6 108.003 26.5 107.903 26.5 107.803C26.5 107.703 26.5 107.703 26.6 107.603C26.8 107.203 29 105.303 28.9 105.103C28.3 102.803 27.2 100.403 25.9 98.103Z" fill="#2D2F3B"/>
</g>
<g opacity="0.28">
<path opacity="0.28" d="M154.4 111.003C153.9 109.803 153.3 108.503 152.7 107.203V107.103C152.5 106.703 152.2 106.203 152 105.703L152.2 104.803L153.9 95.803C153.9 95.803 153.5 94.203 152.3 92.003C151.8 91.103 151.1 90.003 150.2 89.003C148.9 87.403 147.2 85.703 144.9 84.203H144.6L142.1 83.803C141.9 83.903 141.7 84.003 141.6 84.203C141.5 84.203 141.5 84.303 141.4 84.303C141.3 84.403 141.2 84.503 141 84.603C140.9 84.603 140.9 84.703 140.8 84.703C140.7 84.803 140.6 84.903 140.4 85.003C140.3 85.003 140.3 85.103 140.2 85.103C140 85.203 139.9 85.303 139.7 85.403C139.6 85.503 139.5 85.503 139.4 85.603C139.3 85.603 139.3 85.703 139.2 85.803C139.1 85.903 139 86.003 138.9 86.103C138.9 86.103 138.8 86.103 138.8 86.203C116.7 103.403 115.3 127.903 115.3 127.903C115.3 127.903 118 126.503 122.2 123.503C122.2 123.303 122.2 123.103 122.3 122.803C122.7 118.003 123.9 113.303 125.7 108.803C126.7 106.303 127.9 103.803 129.2 101.503C132.1 96.403 135.9 91.803 140.2 87.803C144.4 88.403 151.8 94.603 151.5 98.603C151.3 100.903 150.9 109.003 150.5 111.603C150.3 112.703 150.1 113.703 149.9 114.703C149.8 115.003 149.8 115.303 149.8 115.603C149.9 115.903 150.1 116.203 150.3 116.503C152.3 119.303 154.1 122.103 155.8 125.103C156.1 123.603 156.3 122.303 156.5 121.103C156.6 120.603 156.6 120.103 156.7 119.603C156.8 119.603 156.6 116.303 154.4 111.003Z" fill="#2D2F3B"/>
</g>
<g opacity="0.28">
<path opacity="0.28" d="M107.4 147.303L108.6 148.803L107.6 149.203L91.4001 147.903L90.8001 149.203L75.5001 148.403L74.9001 147.803L67.8001 148.203V147.303H65.6001C65.6001 147.303 65.2001 146.303 64.7001 145.303H74.7001L75.0001 146.503L90.8001 145.303L91.0001 144.303L109 145.703L108 145.803V147.403H107.4V147.303Z" fill="#2D2F3B"/>
</g>
</svg>
