<svg width="56" height="45" viewBox="0 0 56 45" fill="none" xmlns="http://www.w3.org/2000/svg">
<path d="M46.2767 6.59134C45.9256 6.03914 45.4412 5.58459 44.8683 5.26976C44.2953 4.95494 43.6524 4.79001 42.9989 4.79024H35.4851V3.44368C35.4851 2.53051 35.123 1.65474 34.4785 1.00903C33.834 0.363319 32.9599 0.000563716 32.0485 0.000563716H2.69051C2.03725 -0.0129381 1.40217 0.216512 0.907855 0.644618C0.41354 1.07272 0.095049 1.66913 0.0138644 2.3187C-0.0234916 2.67749 0.0148461 3.04014 0.126391 3.38312C0.237935 3.72611 0.420196 4.04177 0.661349 4.30964C0.902503 4.57751 1.19716 4.79159 1.52622 4.93801C1.85527 5.08443 2.21137 5.15991 2.57142 5.15955H13.777C14.2622 5.14652 14.7406 5.27488 15.1544 5.52904C15.5681 5.7832 15.8993 6.15224 16.1077 6.59134C16.2891 6.98519 16.3688 7.41835 16.3397 7.8511C16.3105 8.28385 16.1734 8.70234 15.9408 9.0682C15.7083 9.43405 15.3878 9.73557 15.0088 9.94509C14.6297 10.1546 14.2043 10.2654 13.7714 10.2674H2.69051C2.03378 10.2545 1.3958 10.4871 0.900953 10.9199C0.406103 11.3527 0.0898541 11.9546 0.0138644 12.6083C-0.0234916 12.9671 0.0148461 13.3297 0.126391 13.6727C0.237935 14.0157 0.420196 14.3313 0.661349 14.5992C0.902503 14.8671 1.19716 15.0812 1.52622 15.2276C1.85527 15.374 2.21137 15.4495 2.57142 15.4491H7.89635C8.54767 15.4385 9.17997 15.6692 9.67189 16.097C10.1638 16.5249 10.4807 17.1197 10.5617 17.7673C10.599 18.126 10.5607 18.4887 10.4491 18.8317C10.3376 19.1747 10.1553 19.4903 9.91417 19.7582C9.67301 20.0261 9.37835 20.2401 9.0493 20.3866C8.72024 20.533 8.36414 20.6085 8.0041 20.6081H2.84929C2.19797 20.5974 1.56567 20.8282 1.07376 21.256C0.581842 21.6839 0.264979 22.2787 0.18399 22.9262C0.146634 23.285 0.184972 23.6477 0.296516 23.9907C0.408061 24.3337 0.590321 24.6493 0.831475 24.9172C1.07263 25.1851 1.36729 25.3991 1.69634 25.5456C2.0254 25.692 2.3815 25.7674 2.74154 25.7671H4.76037V35.7669C4.76037 36.7388 5.14573 37.671 5.83168 38.3582C6.51764 39.0455 7.44799 39.4316 8.41807 39.4316H10.9132C11.5053 41.0746 12.5921 42.4929 14.0235 43.4903C15.4548 44.4878 17.16 45.0152 18.9035 44.9997C20.6407 44.9912 22.3344 44.4543 23.7602 43.46C25.1861 42.4657 26.2768 41.0609 26.888 39.4316H33.8348C34.4276 41.0742 35.5146 42.492 36.9458 43.4893C38.377 44.4866 40.0818 45.0143 41.8251 44.9997C43.5623 44.9912 45.2559 44.4543 46.6818 43.46C48.1076 42.4657 49.1984 41.0609 49.8096 39.4316H51.9305C52.9006 39.4316 53.831 39.0455 54.5169 38.3582C55.2029 37.671 55.5882 36.7388 55.5882 35.7669V22.9547C55.5879 21.8435 55.2711 20.7555 54.6752 19.8183L46.2767 6.59134ZM18.9035 39.6589C18.0582 39.6574 17.2478 39.3206 16.6496 38.7223C16.0513 38.124 15.7138 37.3127 15.7108 36.4657C15.7312 35.6264 16.075 34.8276 16.6701 34.2366C17.2653 33.6456 18.0656 33.3083 18.9035 33.2954C19.3337 33.2772 19.7631 33.3464 20.166 33.4988C20.5688 33.6512 20.9367 33.8837 21.2475 34.1823C21.5583 34.4808 21.8057 34.8393 21.9746 35.2361C22.1436 35.6329 22.2307 36.0599 22.2307 36.4913C22.2307 36.9227 22.1436 37.3497 21.9746 37.7465C21.8057 38.1433 21.5583 38.5018 21.2475 38.8004C20.9367 39.0989 20.5688 39.3314 20.166 39.4838C19.7631 39.6362 19.3337 39.7054 18.9035 39.6873V39.6589ZM41.8307 39.6589C40.9804 39.6559 40.1657 39.3161 39.5644 38.7137C38.9632 38.1112 38.624 37.295 38.621 36.443C38.6342 35.5942 38.9766 34.7839 39.5757 34.1837C40.1748 33.5834 40.9836 33.2404 41.8307 33.2272C42.6811 33.2302 43.4958 33.5699 44.097 34.1724C44.6983 34.7748 45.0375 35.591 45.0404 36.443C45.0331 37.2967 44.6925 38.1136 44.0916 38.7189C43.4907 39.3242 42.6771 39.6697 41.8251 39.6816L41.8307 39.6589ZM47.978 21.0399H36.6646C36.4766 21.0399 36.2963 20.9651 36.1634 20.8319C36.0304 20.6987 35.9557 20.5181 35.9557 20.3297V10.9833C35.9557 10.7949 36.0304 10.6143 36.1634 10.4811C36.2963 10.3479 36.4766 10.2731 36.6646 10.2731H42.0406C42.1595 10.2731 42.2766 10.3033 42.3807 10.3609C42.4848 10.4186 42.5727 10.5017 42.636 10.6026L48.5734 19.9547C48.6398 20.0618 48.6766 20.1846 48.68 20.3107C48.6834 20.4367 48.6532 20.5614 48.5926 20.6719C48.532 20.7824 48.4431 20.8747 48.3351 20.9394C48.227 21.0041 48.1038 21.0388 47.978 21.0399V21.0399Z" fill="#F6C445"/>
</svg>
