<svg width="35" height="30" viewBox="0 0 35 30" version="1.1" xmlns="http://www.w3.org/2000/svg" xmlns:xlink="http://www.w3.org/1999/xlink">
<title>Vector</title>
<desc>Created using Figma</desc>
<g id="Canvas" transform="translate(-3732 554)">
<g id="Vector">
<use xlink:href="#path0_fill" transform="translate(3732 -554)" fill="#5D2F95"/>
</g>
</g>
<defs>
<path id="path0_fill" d="M 2.30644 4.55583L 6.71737 4.55583L 10.8685 18.8263C 11.1501 19.7872 11.7396 20.6315 12.5482 21.232C 13.3568 21.8326 14.3408 22.157 15.3519 22.1563L 27.7146 22.1563C 28.7265 22.1566 29.7111 21.8314 30.5198 21.2297C 31.3285 20.6279 31.9176 19.7823 32.1981 18.8203L 34.8869 9.56575C 35.0114 9.13689 35.0334 8.6853 34.9514 8.24656C 34.8694 7.80782 34.6856 7.39392 34.4143 7.03747C 34.1431 6.68101 33.7919 6.39174 33.3885 6.19245C 32.985 5.99315 32.5403 5.88928 32.0893 5.88902L 12.2764 5.88902L 11.0377 2.13457C 10.8323 1.51328 10.4336 0.972218 9.89849 0.588842C 9.3634 0.205466 8.71943 -0.00055846 8.05878 0.000268671L 2.36686 0.000268671C 1.83196 -0.00779463 1.31043 0.165852 0.889283 0.492242C 0.468135 0.818631 0.17283 1.27803 0.0526284 1.7938C -0.020557 2.12661 -0.0173757 2.47142 0.0619371 2.80285C 0.14125 3.13428 0.294675 3.4439 0.51092 3.70891C 0.727165 3.97392 1.00072 4.18757 1.31146 4.33414C 1.62219 4.48071 1.9622 4.55646 2.30644 4.55583ZM 13.364 26.945C 13.3616 27.5476 13.5401 28.1374 13.8768 28.6395C 14.2136 29.1416 14.6935 29.5335 15.2556 29.7655C 15.8177 29.9975 16.4368 30.0591 17.0344 29.9425C 17.6319 29.826 18.181 29.5365 18.6121 29.1108C 19.0432 28.6851 19.3369 28.1424 19.4559 27.5514C 19.5748 26.9604 19.5138 26.3477 19.2804 25.7911C 19.0471 25.2345 18.6519 24.7589 18.1451 24.4247C 17.6383 24.0906 17.0426 23.9128 16.4335 23.914C 15.6214 23.9171 14.8434 24.2373 14.2687 24.8048C 13.6939 25.3724 13.3688 26.1416 13.364 26.945ZM 23.5756 26.945C 23.5732 27.5474 23.7516 28.1369 24.088 28.6389C 24.4245 29.1409 24.904 29.5328 25.4658 29.7649C 26.0276 29.9971 26.6463 30.059 27.2437 29.943C 27.8411 29.8269 28.3903 29.538 28.8216 29.1129C 29.253 28.6879 29.5471 28.1457 29.6667 27.5551C 29.7864 26.9644 29.7262 26.352 29.4938 25.7952C 29.2613 25.2385 28.8671 24.7625 28.3611 24.4276C 27.8551 24.0927 27.26 23.914 26.6512 23.914C 25.837 23.9139 25.0559 24.2327 24.4785 24.8006C 23.9011 25.3686 23.5743 26.1395 23.5696 26.945L 23.5756 26.945Z"/>
</defs>
</svg>
