<svg width="36" height="45" viewBox="0 0 36 45" fill="none" xmlns="http://www.w3.org/2000/svg">
<path d="M17.6165 14.394C9.05531 14.394 2.11377 21.2461 2.11377 29.697C2.11377 38.1479 9.05531 45 17.6165 45C26.1778 45 33.1193 38.1479 33.1193 29.697C33.1193 21.2461 26.1778 14.394 17.6165 14.394ZM21.9467 30.6269L24.6242 38.7678L17.6165 33.743L10.5924 38.7678L13.2698 30.6269L6.24564 25.6021H14.9226L17.6 17.4612L20.2775 25.6021H28.9544L21.9467 30.6269Z" fill="#F6C445"/>
<path d="M26.9217 0V5.14379H20.7239V0H14.5261V5.14379H8.3283V0H0V8.27617H5.22113V11.3433H30.0123V8.27617H35.25V0H26.9217Z" fill="#F6C445"/>
</svg>
