<svg width="62" height="74" viewBox="0 0 62 74" fill="none" xmlns="http://www.w3.org/2000/svg">
<path d="M52.3869 16.1617H12.4621C10.5609 16.1617 8.97656 17.7521 8.97656 19.6605V27.1883H32.002C34.22 27.1883 35.91 28.9907 35.91 31.2173C35.91 33.4438 34.1144 35.0342 32.002 35.0342H8.97656V75.5012C8.97656 77.4096 10.5609 79 12.4621 79H52.3869C54.288 79 55.8724 77.4096 55.8724 75.5012V19.6605C55.8724 17.7521 54.288 16.1617 52.3869 16.1617Z" fill="#90ADD1"/>
<path d="M49.5357 54.0127H15.3145C14.5751 54.0127 13.9414 53.3766 13.9414 52.6344V42.456C13.9414 41.7138 14.5751 41.0777 15.3145 41.0777H49.5357C50.2751 41.0777 50.9088 41.7138 50.9088 42.456V52.5284C50.9088 53.3766 50.2751 54.0127 49.5357 54.0127Z" fill="#F6C445"/>
<path d="M49.5357 69.7044H15.3145C14.5751 69.7044 13.9414 69.0683 13.9414 68.3261V58.2537C13.9414 57.5115 14.5751 56.8754 15.3145 56.8754H49.5357C50.2751 56.8754 50.9088 57.5115 50.9088 58.2537V68.3261C50.9088 69.0683 50.2751 69.7044 49.5357 69.7044Z" fill="#F6C445"/>
<path d="M27.4609 47.2271H37.3893" stroke="#082859" stroke-width="2" stroke-miterlimit="10" stroke-linecap="round"/>
<path d="M27.4609 61.5405H37.3893" stroke="#082859" stroke-width="2" stroke-miterlimit="10" stroke-linecap="round" stroke-linejoin="round"/>
<path d="M51.016 27.8245H38.5527V20.0846H51.016V27.8245C51.1217 27.8245 51.1217 27.8245 51.016 27.8245Z" fill="#3E88C1"/>
<path d="M54.8184 46.0608H58.5151C59.2544 46.0608 59.8882 45.4247 59.8882 44.6825L62.0006 29.4149C62.0006 28.6727 61.3669 28.0365 60.6275 28.0365H54.8184" fill="#90ADD1"/>
<path d="M8.9778 54.3308L0 51.9982L2.32367 46.5909L8.9778 48.3934" fill="#90ADD1"/>
<path d="M53.4448 9.8002H53.0223L52.9167 6.19534C53.1279 4.07484 51.5436 2.27241 49.4312 2.06036L25.4552 0.0458838C23.3428 -0.166166 21.4416 0.257934 20.2798 3.43869L18.6954 6.93752L9.40079 6.19534C8.34457 6.08932 7.28836 7.04354 7.18274 8.20982C7.07712 9.3761 7.92209 10.3303 9.08392 10.4363L53.1279 14.0412C54.2898 14.1472 55.346 13.299 55.4516 12.1327C55.5572 10.9665 54.6066 9.90622 53.4448 9.8002Z" fill="#90ADD1"/>
<path d="M43.9168 26.1281H40.6426V21.781H43.9168V26.1281Z" fill="#F6C445"/>
</svg>
