<svg width="47" height="49" viewBox="0 0 47 49" fill="none" xmlns="http://www.w3.org/2000/svg">
<path d="M45.4453 49H1.55471C0.717557 49 0 48.2522 0 47.3798V8.62018C0 7.74777 0.717557 7 1.55471 7H45.4453C46.2824 7 47 7.74777 47 8.62018V47.3798C47 48.2522 46.2824 49 45.4453 49Z" fill="#90ADD1"/>
<path d="M40.6529 24.2667H20.5953C19.4085 24.2667 18.459 23.1407 18.459 21.7333V17.9333C18.459 16.5259 19.4085 15.4 20.5953 15.4H40.6529C41.8398 15.4 42.7893 16.5259 42.7893 17.9333V21.7333C42.6706 23.1407 41.7211 24.2667 40.6529 24.2667Z" fill="white"/>
<path d="M22.1383 31.5576H19.4085C18.9337 31.5576 18.459 31.203 18.459 30.6121V28.0121C18.459 27.5394 18.815 27.0667 19.4085 27.0667H22.1383C22.613 27.0667 23.0878 27.4212 23.0878 28.0121V30.6121C22.9691 31.0848 22.613 31.5576 22.1383 31.5576Z" fill="#5DA5D6"/>
<path d="M28.6656 31.6758H25.9358C25.4611 31.6758 24.9863 31.3212 24.9863 30.7303V28.1303C24.9863 27.6576 25.3424 27.1849 25.9358 27.1849H28.6656C29.1404 27.1849 29.6151 27.5394 29.6151 28.1303V30.7303C29.6151 31.3212 29.1404 31.6758 28.6656 31.6758Z" fill="#5DA5D6"/>
<path d="M35.1949 31.7939H32.4651C31.9904 31.7939 31.5156 31.4394 31.5156 30.8485V28.2485C31.5156 27.7758 31.8717 27.303 32.4651 27.303H35.1949C35.6697 27.303 36.1444 27.6576 36.1444 28.2485V30.8485C36.1444 31.4394 35.7884 31.7939 35.1949 31.7939Z" fill="#5DA5D6"/>
<path d="M41.8395 31.9121H39.1097C38.6349 31.9121 38.1602 31.5576 38.1602 30.9667V28.3667C38.1602 27.894 38.5162 27.4212 39.1097 27.4212H41.8395C42.3142 27.4212 42.7889 27.7758 42.7889 28.3667V30.9667C42.6703 31.4394 42.3142 31.9121 41.8395 31.9121Z" fill="#5DA5D6"/>
<path d="M22.1383 37.7031H19.4085C18.9337 37.7031 18.459 37.3485 18.459 36.7576V34.1576C18.459 33.6849 18.815 33.2122 19.4085 33.2122H22.1383C22.613 33.2122 23.0878 33.5667 23.0878 34.1576V36.7576C22.9691 37.2303 22.613 37.7031 22.1383 37.7031Z" fill="#5DA5D6"/>
<path d="M28.6656 37.8212H25.9358C25.4611 37.8212 24.9863 37.4667 24.9863 36.8758V34.2758C24.9863 33.803 25.3424 33.3303 25.9358 33.3303H28.6656C29.1404 33.3303 29.6151 33.6849 29.6151 34.2758V36.8758C29.6151 37.3485 29.1404 37.8212 28.6656 37.8212Z" fill="#5DA5D6"/>
<path d="M35.1949 37.9394H32.4651C31.9904 37.9394 31.5156 37.5848 31.5156 36.9939V34.3939C31.5156 33.9212 31.8717 33.4485 32.4651 33.4485H35.1949C35.6697 33.4485 36.1444 33.803 36.1444 34.3939V36.9939C36.1444 37.5848 35.7884 37.9394 35.1949 37.9394Z" fill="#5DA5D6"/>
<path d="M41.8395 38.0576H39.1097C38.6349 38.0576 38.1602 37.703 38.1602 37.1121V34.5121C38.1602 34.0394 38.5162 33.5667 39.1097 33.5667H41.8395C42.3142 33.5667 42.7889 33.9212 42.7889 34.5121V37.1121C42.6703 37.5849 42.3142 38.0576 41.8395 38.0576Z" fill="#5DA5D6"/>
<path d="M22.1383 44.9121H19.4085C18.9337 44.9121 18.459 44.5576 18.459 43.9667V41.3667C18.459 40.8939 18.815 40.4212 19.4085 40.4212H22.1383C22.613 40.4212 23.0878 40.7757 23.0878 41.3667V43.9667C22.9691 44.5576 22.613 44.9121 22.1383 44.9121Z" fill="#5DA5D6"/>
<path d="M28.6656 45.0303H25.9358C25.4611 45.0303 24.9863 44.6758 24.9863 44.0849V41.4849C24.9863 41.0121 25.3424 40.5394 25.9358 40.5394H28.6656C29.1404 40.5394 29.6151 40.8939 29.6151 41.4849V44.0849C29.6151 44.6758 29.1404 45.0303 28.6656 45.0303Z" fill="#5DA5D6"/>
<path d="M35.1949 45.2667H32.4651C31.9904 45.2667 31.5156 44.9121 31.5156 44.3212V41.7212C31.5156 41.2485 31.8717 40.7758 32.4651 40.7758H35.1949C35.6697 40.7758 36.1444 41.1303 36.1444 41.7212V44.3212C36.1444 44.7939 35.7884 45.2667 35.1949 45.2667Z" fill="#5DA5D6"/>
<path d="M41.8395 45.2667H39.1097C38.6349 45.2667 38.1602 44.9121 38.1602 44.3212V41.7212C38.1602 41.2485 38.5162 40.7758 39.1097 40.7758H41.8395C42.3142 40.7758 42.7889 41.1303 42.7889 41.7212V44.3212C42.6703 44.9121 42.3142 45.2667 41.8395 45.2667Z" fill="#5DA5D6"/>
<path d="M42.7882 0H18.9258V11.6667H42.7882V0Z" fill="#5DA5D6"/>
<path d="M10.5745 45.4078H6.05834C3.99383 45.4078 2.31641 43.605 2.31641 41.3862V11.0167C2.31641 8.79793 3.99383 6.99518 6.05834 6.99518H10.5745C12.639 6.99518 14.3164 8.79793 14.3164 11.0167V41.2475C14.3164 43.4663 12.639 45.4078 10.5745 45.4078Z" fill="#F3A84A"/>
<path d="M10.5745 41.8794H6.05834C3.99383 41.8794 2.31641 40.0767 2.31641 37.8579V7.48839C2.31641 5.26961 3.99383 3.46686 6.05834 3.46686H10.5745C12.639 3.46686 14.3164 5.26961 14.3164 7.48839V37.7192C14.3164 40.0767 12.639 41.8794 10.5745 41.8794Z" fill="#F6C445"/>
</svg>
