<svg width="16" height="30" viewBox="0 0 16 30" fill="none" xmlns="http://www.w3.org/2000/svg">
<path d="M15.7323 1.17391C15.3955 0.456522 14.7218 0 13.9807 0L6.73883 0C5.9978 0 5.32413 0.456522 4.9873 1.17391C4.88625 1.36957 4.68415 2.08696 3.40418 6.19565C2.22526 10.0761 0.743195 14.8696 0.136894 16.5652C-0.166256 17.4457 0.0695278 18.4239 0.743195 18.9783L1.82106 20.0217L0.0358444 27.4239C0.0358444 27.4565 0.0358444 27.4891 0.0358444 27.4891C-0.132572 28.4022 0.305311 29.3478 1.08003 29.7717C1.34949 29.9348 1.65265 30 1.9558 30C2.52841 30 3.03366 29.7391 3.40418 29.3152L13.5092 16.663C13.5429 16.6304 13.5429 16.6304 13.5429 16.5978C13.5765 16.5652 13.6439 16.4674 13.745 16.3696C14.0481 16.0109 14.5534 15.3913 14.9239 14.8043C14.9912 14.7065 14.9913 14.6087 14.9576 14.5109C14.9239 14.413 14.8228 14.3478 14.7555 14.3152C11.2524 13.0435 11.5219 10.3043 11.9261 7.98913C12.4313 5.25 13.7113 3.26087 15.6649 2.15217C15.766 2.08696 15.8333 1.98913 15.8333 1.8587C15.8333 1.56522 15.7997 1.40217 15.7323 1.17391Z" fill="#D93E3E"/>
</svg>
