<svg width="132" height="50" viewBox="0 0 132 50" fill="none" xmlns="http://www.w3.org/2000/svg">
<path d="M32.2903 19.5111C33.0868 19.5111 33.8834 19.348 34.7861 19.0219C35.3702 18.8045 36.1137 18.6958 36.273 19.2937L36.3792 19.7828C36.5385 20.4893 36.1137 21.0328 35.4233 21.3045C33.8302 21.9567 32.4496 22.2285 31.2282 22.2285C26.6614 22.2285 24.7497 19.6741 25.6524 14.4567C26.5552 9.07628 29.4758 6.35889 33.9896 6.35889C34.8923 6.35889 35.7951 6.52193 36.6978 6.79367C37.0164 6.90237 37.335 7.01106 37.6006 7.11976C38.1847 7.3915 38.8219 7.88063 38.2909 8.80454L38.0785 9.23932C37.6537 9.8915 37.0164 9.83715 36.4854 9.56541C35.6888 9.23932 34.8923 9.07628 34.0958 9.07628C31.2813 9.07628 29.5289 10.7611 28.9448 14.348C28.6262 16.0871 28.7855 17.3915 29.3696 18.2611C29.9006 19.0763 30.9096 19.5111 32.2903 19.5111Z" fill="white"/>
<path d="M40.5742 22.0108C39.7245 22.0108 39.3528 21.5217 39.5121 20.7065L41.7424 7.93472C41.9017 7.06515 42.4328 6.63037 43.2824 6.63037H50.292C51.1416 6.63037 51.5134 7.06515 51.354 7.93472V8.04341C51.1947 8.91298 50.6637 9.34776 49.8141 9.34776H44.7162L44.0789 12.9347H48.221C49.0706 12.9347 49.4423 13.3695 49.283 14.2391C49.1237 15.0543 48.5927 15.5434 47.7962 15.5434H43.6541L42.9638 19.2934H48.2741C49.1237 19.2934 49.4954 19.7282 49.3361 20.5978V20.7065C49.1768 21.576 48.6989 22.0108 47.7962 22.0108H40.5742Z" fill="white"/>
<path d="M53.3183 22.0655C52.4687 22.0655 52.0969 21.5764 52.2562 20.7611L54.4866 7.98941C54.6459 7.11984 55.1769 6.68506 56.0265 6.68506H60.2217C63.8327 6.68506 65.5851 8.47854 65.0009 11.8481C64.3637 15.4894 61.6555 17.3372 58.2038 17.3372H56.1859L55.6017 20.7611C55.4424 21.6307 54.9645 22.0655 54.0617 22.0655H53.3183ZM56.6107 14.7285H58.5755C60.2217 14.7285 61.443 13.7503 61.7617 12.0111C62.0803 10.2177 61.2837 9.3481 59.4251 9.3481H57.5665L56.6107 14.7285Z" fill="white"/>
<path d="M68.5593 6.68506H69.3558C70.0992 6.68506 70.471 7.01115 70.6834 7.71767C71.2675 9.89158 72.6482 12.0111 74.4537 13.4785L75.4095 7.98941C75.5688 7.11984 76.0999 6.68506 76.9495 6.68506H77.6398C78.4895 6.68506 78.8612 7.11984 78.7019 7.98941L77.7461 13.4242C80.1357 11.9025 82.2067 9.83723 83.4812 7.71767C83.906 7.01115 84.437 6.68506 85.1805 6.68506H85.977C86.7204 6.68506 87.0922 7.01115 86.986 7.60897C86.9329 7.77202 86.8798 7.98941 86.7204 8.26115C85.4991 10.1633 83.5874 12.2285 81.6757 13.8046C82.2067 15.7068 83.375 18.2068 84.7025 20.0546C84.9149 20.3807 85.0212 20.6524 84.968 20.9785C84.9149 21.3046 84.6494 21.6307 84.2246 21.9024L83.8529 22.1198C83.4812 22.3372 83.2157 22.3916 82.9501 22.3916C82.5784 22.3916 82.3129 22.2285 82.1005 21.9024C81.0915 20.4894 79.7109 17.609 79.1798 15.5981C78.5426 15.9785 77.9054 16.359 77.2681 16.6307L76.5247 20.7611C76.3654 21.6307 75.8875 22.0655 74.9847 22.0655H74.2944C73.4447 22.0655 73.073 21.5764 73.2323 20.7611L73.9226 16.6307C73.4447 16.4133 72.9668 16.0329 72.3296 15.5981C71.002 17.7177 68.7717 20.3807 67.2317 21.8481C66.9131 22.1742 66.5413 22.3372 66.1696 22.3372C65.9041 22.3372 65.6386 22.2285 65.3731 22.0111L65.1076 21.7938C64.7358 21.522 64.6296 21.1959 64.6827 20.8698C64.7358 20.5981 64.9483 20.272 65.2669 19.9459C67.0193 18.3155 69.1965 15.7068 70.4179 13.6959C69.5682 12.6633 68.8248 11.5764 68.1875 10.3264C67.7096 9.40245 67.1255 8.15245 67.2317 7.50028C67.3379 7.01115 67.8158 6.68506 68.5593 6.68506Z" fill="white"/>
<path d="M98.8807 22.174H98.0842C97.2876 22.174 96.8628 21.848 96.8097 21.0327L96.6504 18.7501H90.5967L90.0125 20.1632C89.4284 21.5762 89.1098 22.174 87.9946 22.174H87.2512C86.4015 22.1197 85.9767 21.5762 86.4015 20.7066C87.676 17.7175 90.756 11.1958 92.9332 7.71752C93.358 7.06534 93.889 6.73926 94.6325 6.73926H96.8628C97.6062 6.73926 98.0311 7.011 98.1904 7.71752C99.4117 11.848 99.8897 16.3588 100.208 20.761C100.368 21.5219 99.7835 22.1197 98.8807 22.174ZM95.1104 9.45665C94.4732 10.598 92.9332 13.5871 91.7649 16.0871H96.438C96.1725 13.5327 95.8538 11.3588 95.429 9.45665H95.1104Z" fill="white"/>
<path d="M104.085 22.1197C103.235 22.1197 102.864 21.6306 103.023 20.8153L105.253 8.04361C105.412 7.17404 105.944 6.73926 106.793 6.73926H107.483C108.333 6.73926 108.705 7.17404 108.546 8.04361L107.696 12.9349H113.962L114.812 8.04361C114.971 7.17404 115.502 6.73926 116.352 6.73926H117.042C117.892 6.73926 118.263 7.17404 118.104 8.04361L115.874 20.8153C115.714 21.6849 115.237 22.1197 114.334 22.1197H113.643C112.794 22.1197 112.422 21.6306 112.581 20.8153L113.484 15.7066H107.218L106.315 20.8153C106.156 21.6849 105.678 22.1197 104.775 22.1197H104.085Z" fill="white"/>
<path d="M121.45 9.51134C120.6 9.51134 120.228 9.02221 120.388 8.20699V8.09829C120.547 7.22873 121.078 6.79395 121.928 6.79395H130.902C131.752 6.79395 132.123 7.22873 131.964 8.09829V8.20699C131.805 9.07655 131.327 9.51134 130.424 9.51134H127.61L125.645 20.8157C125.485 21.6852 125.008 22.12 124.105 22.12H123.414C122.565 22.12 122.193 21.6309 122.352 20.8157L124.317 9.51134H121.45Z" fill="white"/>
<path d="M38.4499 42.12C38.2906 42.9896 37.8127 43.4244 36.9099 43.4244H36.2196C35.3699 43.4244 34.9982 42.9352 35.1575 42.12L37.1223 30.8157H30.8562L28.8914 42.12C28.7321 42.9896 28.2542 43.4244 27.3514 43.4244H26.6611C25.8114 43.4244 25.4397 42.9352 25.599 42.12L27.7762 29.3483C27.9355 28.4787 28.4666 28.0439 29.3162 28.0439H39.5651C40.4147 28.0439 40.7864 28.4787 40.6271 29.3483L38.4499 42.12Z" fill="white"/>
<path d="M43.2294 43.4244C42.3798 43.4244 42.0081 42.9352 42.1674 42.12L44.3446 29.3483C44.5039 28.4787 45.0349 28.0439 45.8846 28.0439H50.0797C53.6907 28.0439 55.4431 29.8374 54.859 33.207C54.2217 36.8483 51.5135 38.6961 48.0618 38.6961H46.0439L45.4598 42.12C45.3004 42.9896 44.8225 43.4244 43.9198 43.4244H43.2294ZM46.4687 36.0874H48.4335C50.0797 36.0874 51.3542 35.1092 51.6197 33.37C51.9383 31.5766 51.1418 30.707 49.2832 30.707H47.4246L46.4687 36.0874Z" fill="white"/>
<path d="M66.8601 43.4786C66.0105 43.4786 65.6388 43.0438 65.7981 42.1742L67.338 33.4242H67.2318C66.5415 34.1308 65.745 35.1634 64.6829 36.5221C62.7712 39.0221 61.4436 40.8155 60.4347 42.0112C59.6381 42.9894 59.1071 43.4786 58.0981 43.4786H56.8237C55.974 43.4786 55.6023 42.9894 55.7616 42.1742L57.9919 29.4025C58.1512 28.5329 58.6823 28.0981 59.5319 28.0981H60.2223C61.0719 28.0981 61.4436 28.5329 61.2843 29.4025L59.6912 38.3699H59.7974C60.3816 37.7177 61.2843 36.6851 62.3464 35.2177L63.7801 33.2612C64.8953 31.7394 65.8512 30.4894 66.6477 29.5112L67.1787 28.9134C67.6567 28.3155 68.1877 28.0981 68.878 28.0981H70.2056C71.0552 28.0981 71.427 28.5329 71.2677 29.4025L69.0373 42.1742C68.878 43.0438 68.4001 43.4786 67.4973 43.4786H66.8601Z" fill="white"/>
<path d="M73.8168 43.4786C72.9672 43.4786 72.5955 42.9894 72.7548 42.1742L74.9851 29.4025C75.1444 28.5329 75.6754 28.0981 76.5251 28.0981H77.2154C78.0651 28.0981 78.4368 28.5329 78.2775 29.4025L77.4278 34.2938H83.694L84.5436 29.4025C84.7029 28.5329 85.234 28.0981 86.0836 28.0981H86.7739C87.6236 28.0981 87.9953 28.5329 87.836 29.4025L85.6057 42.1742C85.4464 43.0438 84.9684 43.4786 84.0657 43.4786H83.3754C82.5257 43.4786 82.154 42.9894 82.3133 42.1742L83.216 37.0655H76.9499L76.0472 42.1742C75.8878 43.0438 75.4099 43.4786 74.5072 43.4786H73.8168Z" fill="white"/>
<path d="M91.1811 30.8697C90.3314 30.8697 89.9597 30.3806 90.119 29.5654V29.4567C90.2783 28.5871 90.8094 28.1523 91.659 28.1523H100.633C101.483 28.1523 101.855 28.5871 101.695 29.4567V29.5654C101.536 30.435 101.058 30.8697 100.155 30.8697H97.341L95.3762 42.1741C95.2169 43.0436 94.739 43.4784 93.8362 43.4784H93.1459C92.2962 43.4784 91.9245 42.9893 92.0838 42.1741L94.0487 30.8697H91.1811Z" fill="white"/>
<path d="M24.8025 1.95652C24.2714 0.76087 23.2094 0 22.0411 0H10.624C9.45572 0 8.39366 0.76087 7.86264 1.95652C7.70333 2.28261 7.38471 3.47826 5.3668 10.3261C3.5082 16.7935 1.17167 24.7826 0.215819 27.6087C-0.262107 29.0761 0.109613 30.7065 1.17167 31.6304L2.87096 33.3696L0.0565099 45.7065C0.0565099 45.7609 0.0565099 45.8152 0.0565099 45.8152C-0.209005 47.337 0.481333 48.913 1.7027 49.6196C2.12752 49.8913 2.60545 50 3.08337 50C3.98612 50 4.78267 49.5652 5.3668 48.8587L21.2977 27.7717C21.3508 27.7174 21.3508 27.7174 21.3508 27.663C21.4039 27.6087 21.5101 27.4457 21.6694 27.2826C22.1473 26.6848 22.9439 25.6522 23.528 24.6739C23.6342 24.5109 23.6342 24.3478 23.5811 24.1848C23.528 24.0217 23.3687 23.913 23.2625 23.8587C17.7398 21.7391 18.1646 17.1739 18.8018 13.3152C19.5984 8.75 21.6163 5.43478 24.6963 3.58696C24.8556 3.47826 24.9618 3.31522 24.9618 3.09783C24.9618 2.6087 24.9087 2.33696 24.8025 1.95652Z" fill="#F6C445"/>
<path d="M21.3509 27.663C21.404 27.6087 21.5102 27.4457 21.6695 27.2826C22.1475 26.6848 22.944 25.6522 23.5281 24.6739C23.6343 24.5109 23.6343 24.3478 23.5812 24.1848C23.5281 24.0217 23.3688 23.913 23.2626 23.8587C17.7399 21.7391 18.1647 17.1739 18.802 13.3152C19.5985 8.75 21.6164 5.43478 24.6964 3.58696C24.8557 3.47826 24.9619 3.31522 24.9619 3.09783C24.9619 2.6087 24.9088 2.28261 24.8026 1.95652C24.2716 0.76087 23.2095 0 22.0413 0H13.651C11.8986 3.69565 10.8896 7.88043 10.8896 12.2826C10.8896 19.7283 13.7041 26.4674 18.3772 31.5761L21.2447 27.7717C21.2978 27.7174 21.2978 27.663 21.3509 27.663Z" fill="url(#paint0_linear)"/>
<defs>
<linearGradient id="paint0_linear" x1="16.0724" y1="-5.7306" x2="35.9644" y2="138.564" gradientUnits="userSpaceOnUse">
<stop stop-color="#F7C441"/>
<stop offset="0.3094" stop-color="#F19A4F"/>
<stop offset="0.7502" stop-color="#EA6361"/>
</linearGradient>
</defs>
</svg>
