<svg width="255" height="94" viewBox="0 0 255 94" version="1.1" xmlns="http://www.w3.org/2000/svg" xmlns:xlink="http://www.w3.org/1999/xlink">
<title>logo</title>
<desc>Created using Figma</desc>
<g id="Canvas" transform="translate(-3281 691)">
<g id="logo">
<g id="&#208;&#154;">
<g id="Vector">
<use xlink:href="#path0_fill" transform="translate(3330.13 -679.046)"/>
</g>
<g id="Vector">
<use xlink:href="#path1_fill" transform="translate(3357.26 -678.535)"/>
</g>
<g id="Vector">
<use xlink:href="#path2_fill" transform="translate(3381.88 -678.433)"/>
</g>
<g id="Vector">
<use xlink:href="#path3_fill" transform="translate(3405.93 -678.433)"/>
</g>
<g id="Vector">
<use xlink:href="#path4_fill" transform="translate(3447.59 -678.33)"/>
</g>
<g id="Vector">
<use xlink:href="#path5_fill" transform="translate(3479.95 -678.33)"/>
</g>
<g id="Vector">
<use xlink:href="#path6_fill" transform="translate(3513.5 -678.228)"/>
</g>
<g id="Vector">
<use xlink:href="#path7_fill" transform="translate(3330.38 -638.278)"/>
</g>
<g id="Vector">
<use xlink:href="#path8_fill" transform="translate(3362.39 -638.278)"/>
</g>
<g id="Vector">
<use xlink:href="#path9_fill" transform="translate(3388.65 -638.176)"/>
</g>
<g id="Vector">
<use xlink:href="#path10_fill" transform="translate(3421.48 -638.176)"/>
</g>
<g id="Vector">
<use xlink:href="#path11_fill" transform="translate(3455.02 -638.074)"/>
</g>
</g>
<g id="Vector">
<use xlink:href="#path12_fill" transform="translate(3281 -691)" fill="#F6C445"/>
</g>
<g id="Vector">
<use xlink:href="#path13_fill" transform="translate(3302.04 -691)" fill="url(#paint13_linear)"/>
</g>
</g>
</g>
<defs>
<linearGradient id="paint13_linear" x1="0" y1="0" x2="1" y2="0" gradientUnits="userSpaceOnUse" gradientTransform="matrix(36.7183 271.504 -272.596 36.5711 146.31 -29.0591)">
<stop offset="0" stop-color="#F7C441"/>
<stop offset="0.3094" stop-color="#F19A4F"/>
<stop offset="0.7502" stop-color="#EA6361"/>
</linearGradient>
<path id="path0_fill" d="M 13.2439 24.7261C 14.7827 24.7261 16.3215 24.4196 18.0654 23.8065C 19.1939 23.3978 20.6301 23.1935 20.9378 24.3174L 21.143 25.237C 21.4507 26.5652 20.6301 27.587 19.2965 28.0978C 16.2189 29.3239 13.5517 29.8348 11.1922 29.8348C 2.36993 29.8348 -1.32313 25.0326 0.420812 15.2239C 2.16476 5.1087 7.80694 -1.94881e-07 16.5267 -1.94881e-07C 18.2706 -1.94881e-07 20.0146 0.306522 21.7585 0.817391C 22.374 1.02174 22.9895 1.22609 23.5025 1.43044C 24.6309 1.9413 25.8619 2.86087 24.8361 4.59783L 24.4257 5.41522C 23.605 6.6413 22.374 6.53913 21.3482 6.02826C 19.8094 5.41522 18.2706 5.1087 16.7318 5.1087C 11.2948 5.1087 7.90952 8.27609 6.78109 15.0196C 6.16558 18.2891 6.47333 20.7413 7.60176 22.3761C 8.62761 23.9087 10.5767 24.7261 13.2439 24.7261Z"/>
<path id="path1_fill" d="M 2.1213 28.9152C 0.479937 28.9152 -0.238158 27.9956 0.0695966 26.463L 4.37817 2.45217C 4.68592 0.817392 5.71177 -1.94881e-07 7.35313 -1.94881e-07L 20.8944 -1.94881e-07C 22.5357 -1.94881e-07 23.2538 0.817392 22.9461 2.45217L 22.9461 2.65652C 22.6383 4.2913 21.6125 5.1087 19.9711 5.1087L 10.1229 5.1087L 8.89191 11.8522L 16.8935 11.8522C 18.5349 11.8522 19.253 12.6696 18.9452 14.3043C 18.6375 15.837 17.6116 16.7565 16.0729 16.7565L 8.07123 16.7565L 6.73762 23.8065L 16.9961 23.8065C 18.6375 23.8065 19.3556 24.6239 19.0478 26.2587L 19.0478 26.463C 18.7401 28.0978 17.8168 28.9152 16.0729 28.9152L 2.1213 28.9152Z"/>
<path id="path2_fill" d="M 2.1213 28.9152C 0.479937 28.9152 -0.238158 27.9957 0.0695966 26.463L 4.37817 2.45217C 4.68592 0.817391 5.71177 1.94881e-07 7.35313 1.94881e-07L 15.4574 1.94881e-07C 22.4331 1.94881e-07 25.8184 3.37174 24.69 9.70652C 23.459 16.5522 18.2271 20.0261 11.5591 20.0261L 7.66089 20.0261L 6.53245 26.463C 6.22469 28.0978 5.30144 28.9152 3.55749 28.9152L 2.1213 28.9152ZM 8.48157 15.1217L 12.2772 15.1217C 15.4574 15.1217 17.8168 13.2826 18.4323 10.013C 19.0478 6.6413 17.5091 5.00652 13.9186 5.00652L 10.3281 5.00652L 8.48157 15.1217Z"/>
<path id="path3_fill" d="M 7.51348 1.94881e-07L 9.05226 1.94881e-07C 10.4884 1.94881e-07 11.2065 0.613043 11.6169 1.9413C 12.7453 6.02826 15.4125 10.013 18.9004 12.7717L 20.7469 2.45217C 21.0547 0.817391 22.0805 1.94881e-07 23.7219 1.94881e-07L 25.0555 1.94881e-07C 26.6969 1.94881e-07 27.415 0.817391 27.1072 2.45217L 25.2607 12.6696C 29.877 9.8087 33.8778 5.92609 36.3399 1.9413C 37.1605 0.613043 38.1864 1.94881e-07 39.6226 1.94881e-07L 41.1614 1.94881e-07C 42.5976 1.94881e-07 43.3157 0.613044 43.1105 1.73696C 43.0079 2.04348 42.9053 2.45217 42.5976 2.96304C 40.2381 6.53913 36.545 10.4217 32.852 13.3848C 33.8778 16.9609 36.1347 21.6609 38.6993 25.1348C 39.1097 25.7478 39.3148 26.2587 39.2123 26.8717C 39.1097 27.4848 38.5968 28.0978 37.7761 28.6087L 37.058 29.0174C 36.3399 29.4261 35.8269 29.5283 35.314 29.5283C 34.5959 29.5283 34.083 29.2217 33.6727 28.6087C 31.7236 25.9522 29.0563 20.537 28.0305 16.7565C 26.7995 17.4717 25.5684 18.187 24.3374 18.6978L 22.9012 26.463C 22.5935 28.0978 21.6702 28.9152 19.9263 28.9152L 18.5927 28.9152C 16.9513 28.9152 16.2332 27.9957 16.541 26.463L 17.8746 18.6978C 16.9513 18.2891 16.028 17.5739 14.797 16.7565C 12.2324 20.7413 7.92381 25.7478 4.94885 28.5065C 4.33334 29.1196 3.61524 29.4261 2.89715 29.4261C 2.38422 29.4261 1.8713 29.2217 1.35837 28.813L 0.845447 28.4043C 0.127351 27.8935 -0.0778142 27.2804 0.0247709 26.6674C 0.127356 26.1565 0.537695 25.5435 1.1532 24.9304C 4.53851 21.8652 8.7445 16.9609 11.104 13.1804C 9.4626 11.2391 8.02639 9.19565 6.79537 6.84565C 5.87211 5.1087 4.74368 2.7587 4.94885 1.53261C 5.15402 0.613044 6.07729 1.94881e-07 7.51348 1.94881e-07Z"/>
<path id="path4_fill" d="M 24.4294 29.0174L 22.8907 29.0174C 21.3519 29.0174 20.5312 28.4043 20.4286 26.8717L 20.1209 22.5804L 8.42618 22.5804L 7.29774 25.237C 6.1693 27.8935 5.55379 29.0174 3.39951 29.0174L 1.96332 29.0174C 0.32196 28.9152 -0.498727 27.8935 0.321954 26.2587C 2.78399 20.6391 8.73393 8.37826 12.9399 1.83913C 13.7606 0.613043 14.7864 -3.89763e-07 16.2226 -3.89763e-07L 20.5312 -3.89763e-07C 21.9674 -3.89763e-07 22.7881 0.510869 23.0958 1.83913C 25.4553 9.60435 26.3786 18.0848 26.9941 26.3609C 27.3018 27.7913 26.1734 28.9152 24.4294 29.0174ZM 17.1459 5.1087C 15.9149 7.25435 12.9399 12.8739 10.683 17.5739L 19.7105 17.5739C 19.1976 12.7717 18.5821 8.68478 17.7614 5.1087L 17.1459 5.1087Z"/>
<path id="path5_fill" d="M 2.1213 28.9152C 0.479935 28.9152 -0.23816 27.9957 0.0695951 26.463L 4.37816 2.45217C 4.68592 0.817391 5.71178 -3.89763e-07 7.35314 -3.89763e-07L 8.68673 -3.89763e-07C 10.3281 -3.89763e-07 11.0462 0.817391 10.7384 2.45217L 9.09708 11.6478L 21.2021 11.6478L 22.8435 2.45217C 23.1512 0.817391 24.1771 -3.89763e-07 25.8184 -3.89763e-07L 27.152 -3.89763e-07C 28.7934 -3.89763e-07 29.5115 0.817391 29.2037 2.45217L 24.8952 26.463C 24.5874 28.0978 23.6642 28.9152 21.9202 28.9152L 20.5866 28.9152C 18.9452 28.9152 18.2271 27.9957 18.5349 26.463L 20.2788 16.8587L 8.17381 16.8587L 6.42986 26.463C 6.12211 28.0978 5.19885 28.9152 3.4549 28.9152L 2.1213 28.9152Z"/>
<path id="path6_fill" d="M 2.12129 5.1087C 0.479932 5.1087 -0.238163 4.18913 0.069592 2.65652L 0.069592 2.45217C 0.377347 0.817391 1.40321 0 3.04457 0L 20.3814 0C 22.0228 0 22.7409 0.817391 22.4331 2.45217L 22.4331 2.65652C 22.1254 4.2913 21.2021 5.1087 19.4582 5.1087L 14.0212 5.1087L 10.2255 26.3609C 9.91777 27.9957 8.99449 28.813 7.25055 28.813L 5.91694 28.813C 4.27558 28.813 3.55748 27.8935 3.86524 26.3609L 7.66089 5.1087L 2.12129 5.1087Z"/>
<path id="path7_fill" d="M 24.8952 26.463C 24.5874 28.0978 23.6642 28.9152 21.9202 28.9152L 20.5866 28.9152C 18.9452 28.9152 18.2271 27.9957 18.5349 26.463L 22.3306 5.21087L 10.2255 5.21087L 6.42987 26.463C 6.12211 28.0978 5.19885 28.9152 3.4549 28.9152L 2.1213 28.9152C 0.479936 28.9152 -0.238159 27.9957 0.0695959 26.463L 4.27558 2.45217C 4.58334 0.817391 5.60919 -1.55905e-06 7.25055 -1.55905e-06L 27.0495 -1.55905e-06C 28.6908 -1.55905e-06 29.4089 0.817391 29.1012 2.45217L 24.8952 26.463Z"/>
<path id="path8_fill" d="M 2.1213 28.9152C 0.479937 28.9152 -0.238158 27.9957 0.0695966 26.463L 4.27558 2.45217C 4.58334 0.817391 5.60919 -1.55905e-06 7.25055 -1.55905e-06L 15.3548 -1.55905e-06C 22.3306 -1.55905e-06 25.7159 3.37174 24.5874 9.70652C 23.3564 16.5522 18.1246 20.0261 11.4565 20.0261L 7.5583 20.0261L 6.42987 26.463C 6.12211 28.0978 5.19884 28.9152 3.4549 28.9152L 2.1213 28.9152ZM 8.37898 15.1217L 12.1746 15.1217C 15.3548 15.1217 17.8168 13.2826 18.3297 10.013C 18.9452 6.64131 17.4065 5.00652 13.816 5.00652L 10.2255 5.00652L 8.37898 15.1217Z"/>
<path id="path9_fill" d="M 21.5099 28.9152C 19.8685 28.9152 19.1504 28.0978 19.4582 26.463L 22.4331 10.013L 22.228 10.013C 20.8944 11.3413 19.3556 13.2826 17.3039 15.837C 13.6108 20.537 11.0462 23.9087 9.09708 26.1565C 7.55831 27.9957 6.53245 28.9152 4.58334 28.9152L 2.1213 28.9152C 0.479935 28.9152 -0.23816 27.9956 0.0695951 26.463L 4.37816 2.45217C 4.68592 0.81739 5.71177 7.79525e-07 7.35313 7.79525e-07L 8.68674 7.79525e-07C 10.3281 7.79525e-07 11.0462 0.81739 10.7384 2.45217L 7.66089 19.3109L 7.86606 19.3109C 8.99449 18.0848 10.7384 16.1435 12.7901 13.3848L 15.5599 9.70652C 17.7142 6.84565 19.5608 4.49565 21.0995 2.65652L 22.1254 1.53261C 23.0486 0.408696 24.0745 7.79525e-07 25.4081 7.79525e-07L 27.9727 7.79525e-07C 29.6141 7.79525e-07 30.3322 0.81739 30.0244 2.45217L 25.7159 26.463C 25.4081 28.0978 24.4848 28.9152 22.7409 28.9152L 21.5099 28.9152Z"/>
<path id="path10_fill" d="M 2.1213 28.9152C 0.479935 28.9152 -0.23816 27.9956 0.0695951 26.463L 4.37816 2.45217C 4.68592 0.81739 5.71178 7.79525e-07 7.35314 7.79525e-07L 8.68673 7.79525e-07C 10.3281 7.79525e-07 11.0462 0.81739 10.7384 2.45217L 9.09708 11.6478L 21.2021 11.6478L 22.8435 2.45217C 23.1512 0.81739 24.1771 7.79525e-07 25.8184 7.79525e-07L 27.152 7.79525e-07C 28.7934 7.79525e-07 29.5115 0.81739 29.2037 2.45217L 24.8952 26.463C 24.5874 28.0978 23.6642 28.9152 21.9202 28.9152L 20.5866 28.9152C 18.9452 28.9152 18.2271 27.9956 18.5349 26.463L 20.2788 16.8587L 8.17381 16.8587L 6.42986 26.463C 6.12211 28.0978 5.19885 28.9152 3.4549 28.9152L 2.1213 28.9152Z"/>
<path id="path11_fill" d="M 2.12129 5.10869C 0.479932 5.10869 -0.238163 4.18913 0.069592 2.65652L 0.069592 2.45217C 0.377347 0.817392 1.40321 -7.79525e-07 3.04457 -7.79525e-07L 20.3814 -7.79525e-07C 22.0228 -7.79525e-07 22.7409 0.817392 22.4331 2.45217L 22.4331 2.65652C 22.1254 4.29131 21.2021 5.10869 19.4582 5.10869L 14.0212 5.10869L 10.2255 26.3609C 9.91777 27.9957 8.99449 28.813 7.25055 28.813L 5.91694 28.813C 4.27558 28.813 3.55748 27.8935 3.86524 26.3609L 7.66089 5.10869L 2.12129 5.10869Z"/>
<path id="path12_fill" d="M 47.9138 3.67826C 46.8879 1.43043 44.8362 0 42.5794 0L 20.5236 0C 18.2667 0 16.215 1.43043 15.1892 3.67826C 14.8814 4.2913 14.2659 6.53913 10.3677 19.413C 6.7772 31.5717 2.26345 46.5913 0.416922 51.9043C -0.506343 54.663 0.211752 57.7283 2.26345 59.4652L 5.54617 62.7348L 0.109167 85.9283C 0.109167 86.0304 0.109167 86.1326 0.109167 86.1326C -0.403758 88.9935 0.929847 91.9565 3.2893 93.2848C 4.10998 93.7957 5.03325 94 5.95651 94C 7.70046 94 9.23924 93.1826 10.3677 91.8543L 41.1432 52.2109C 41.2458 52.1087 41.2458 52.1087 41.2458 52.0065C 41.3484 51.9044 41.5535 51.5978 41.8613 51.2913C 42.7845 50.1674 44.3233 48.2261 45.4518 46.387C 45.6569 46.0804 45.6569 45.7739 45.5543 45.4674C 45.4518 45.1609 45.144 44.9565 44.9388 44.8544C 34.27 40.8696 35.0907 32.287 36.3217 25.0326C 37.8605 16.45 41.7587 10.2174 47.7086 6.74348C 48.0164 6.53913 48.2216 6.23261 48.2216 5.82391C 48.2216 4.90435 48.119 4.39348 47.9138 3.67826Z"/>
<path id="path13_fill" d="M 20.2093 52.0065C 20.3118 51.9044 20.517 51.5978 20.8248 51.2913C 21.748 50.1674 23.2868 48.2261 24.4152 46.387C 24.6204 46.0804 24.6204 45.7739 24.5178 45.4674C 24.4152 45.1609 24.1075 44.9565 23.9023 44.8543C 13.2335 40.8696 14.0542 32.287 15.2852 25.0326C 16.8239 16.45 20.7222 10.2174 26.6721 6.74348C 26.9799 6.53913 27.185 6.23261 27.185 5.82391C 27.185 4.90435 27.0825 4.2913 26.8773 3.67826C 25.8514 1.43043 23.7997 0 21.5429 0L 5.33442 0C 1.94912 6.94783 0 14.8152 0 23.0913C 0 37.0891 5.43701 49.7587 14.4645 59.363L 20.0041 52.2109C 20.1067 52.1087 20.1067 52.0065 20.2093 52.0065Z"/>
</defs>
</svg>
