<svg width="45" height="47" viewBox="0 0 45 47" fill="none" xmlns="http://www.w3.org/2000/svg">
<path fill-rule="evenodd" clip-rule="evenodd" d="M43.7035 38.8751L43.7582 38.931C44.1528 39.3354 44.4656 39.8151 44.6786 40.3429C44.8917 40.8707 45.0009 41.4361 44.9999 42.007C44.999 42.5779 44.888 43.143 44.6732 43.67C44.4585 44.1971 44.1442 44.6758 43.7483 45.0788C43.3524 45.4818 42.8826 45.8012 42.3659 46.0188C41.8491 46.2364 41.2955 46.3479 40.7365 46.3469C40.1775 46.346 39.6242 46.2326 39.1082 46.0133C38.5921 45.7939 38.1234 45.4729 37.7288 45.0686L37.6741 45.0127C37.6635 45.0144 37.6527 45.0128 37.643 45.0083C37.6332 45.0038 37.625 44.9965 37.6193 44.9872L27.313 34.4614C23.6018 36.8157 19.175 37.7008 14.8686 36.9495C10.5621 36.1981 6.67398 33.8624 3.93849 30.3833C1.203 26.9043 -0.190552 22.5227 0.0209849 18.0659C0.232521 13.6092 2.03451 9.38582 5.08666 6.1933C8.13881 3.00077 12.2299 1.06008 16.5873 0.737692C20.9448 0.415307 25.267 1.73354 28.7378 4.44346C32.2086 7.15339 34.5878 11.0674 35.4261 15.4465C36.2643 19.8256 35.5036 24.3665 33.2877 28.2119L43.6736 38.7988C43.6719 38.8024 43.6707 38.8061 43.6698 38.8099C43.6689 38.8136 43.6684 38.8173 43.6683 38.8211C43.6682 38.8251 43.6685 38.8291 43.6692 38.8331C43.6699 38.8367 43.6709 38.8402 43.6722 38.8436C43.675 38.8508 43.6792 38.8573 43.6846 38.8627C43.69 38.8681 43.6964 38.8724 43.7035 38.8751ZM17.9999 31.1279C24.6273 31.1279 29.9999 25.6769 29.9999 18.9528C29.9999 12.2286 24.6273 6.77759 17.9999 6.77759C11.3725 6.77759 5.99988 12.2286 5.99988 18.9528C5.99988 25.6769 11.3725 31.1279 17.9999 31.1279Z" fill="#F6C445"/>
</svg>
