<svg width="25" height="16" viewBox="0 0 25 16" fill="none" xmlns="http://www.w3.org/2000/svg">
<path d="M1.66667 1.09049e-06C0.743333 1.09049e-06 -3.86047e-08 0.74333 -3.86047e-08 1.66667V14.1667C-3.86047e-08 15.09 0.743333 15.8333 1.66667 15.8333H23.3333C24.2567 15.8333 25 15.09 25 14.1667V1.66667C25 0.74333 24.2567 1.09049e-06 23.3333 1.09049e-06H1.66667ZM4.12758 2.04427C4.45946 2.04002 4.79096 2.17455 5.02604 2.40886L12.0183 8.99742C12.1673 9.13805 12.8175 9.13959 12.9688 8.99742L19.974 2.40886C20.4512 1.95878 21.2949 1.98353 21.7449 2.46081C22.1949 2.93809 22.17 3.78183 21.6927 4.23177L17.9037 7.78646L21.7188 11.6016C22.2285 12.0534 22.2537 12.9445 21.7703 13.4244C21.2868 13.9043 20.396 13.8725 19.9479 13.3594L16.0808 9.49221L14.6745 10.8203C13.4266 11.9933 11.5472 11.9965 10.2995 10.8203L8.90625 9.50521L5.05208 13.3594C4.60404 13.8725 3.71317 13.9043 3.22971 13.4244C2.74625 12.9445 2.77146 12.0534 3.28125 11.6016L7.09633 7.78646L3.30729 4.21875C2.95817 3.8983 2.81758 3.36897 2.96171 2.91751C3.14546 2.33933 3.62429 2.11278 4.12758 2.04427Z" fill="white"/>
</svg>
