<svg width="17" height="23" viewBox="0 0 17 23" fill="none" xmlns="http://www.w3.org/2000/svg">
<path d="M7.62645 22.536C1.19398 13.0737 0 12.1025 0 8.625C0 3.86153 3.80556 0 8.5 0C13.1944 0 17 3.86153 17 8.625C17 12.1025 15.806 13.0737 9.37355 22.536C8.95143 23.1547 8.04853 23.1547 7.62645 22.536ZM8.5 12.2188C10.456 12.2188 12.0417 10.6098 12.0417 8.625C12.0417 6.64022 10.456 5.03125 8.5 5.03125C6.54398 5.03125 4.95833 6.64022 4.95833 8.625C4.95833 10.6098 6.54398 12.2188 8.5 12.2188Z" fill="#F6C445"/>
</svg>
