<svg width="66" height="56" viewBox="0 0 66 56" fill="none" xmlns="http://www.w3.org/2000/svg">
<path d="M0 25.1187V51.124C0 53.7836 2.22973 56 4.90541 56H61.0946C63.7703 56 66 53.7836 66 51.124V25.1187H0Z" fill="#90ADD1"/>
<path d="M50.838 52.3061V46.1003C50.838 43.4406 49.6488 41.2243 48.1623 41.2243H17.6893C16.2029 41.2243 15.0137 43.4406 15.0137 46.1003V52.3061H50.838Z" fill="#3E88C1"/>
<path d="M45.338 49.2032H20.5137V55.8523H45.338V49.2032Z" fill="#90ADD1"/>
<path d="M26.1627 31.4723C27.1478 31.4723 27.9465 30.6785 27.9465 29.6992C27.9465 28.72 27.1478 27.9261 26.1627 27.9261C25.1775 27.9261 24.3789 28.72 24.3789 29.6992C24.3789 30.6785 25.1775 31.4723 26.1627 31.4723Z" fill="white"/>
<path d="M33.0006 31.4723C33.9857 31.4723 34.7844 30.6785 34.7844 29.6992C34.7844 28.72 33.9857 27.9261 33.0006 27.9261C32.0154 27.9261 31.2168 28.72 31.2168 29.6992C31.2168 30.6785 32.0154 31.4723 33.0006 31.4723Z" fill="white"/>
<path d="M39.6881 31.4723C40.6732 31.4723 41.4719 30.6785 41.4719 29.6992C41.4719 28.72 40.6732 27.9261 39.6881 27.9261C38.7029 27.9261 37.9043 28.72 37.9043 29.6992C37.9043 30.6785 38.7029 31.4723 39.6881 31.4723Z" fill="white"/>
<path d="M14.2703 18.0264V15.6623L64.6622 5.61478L63.6216 0L13.6757 10.0475H4.90541C2.22973 10.0475 0 12.1161 0 14.7757V22.4591H65.8514V17.8786H14.2703V18.0264Z" fill="#90ADD1"/>
</svg>
