<svg width="45" height="45" viewBox="0 0 45 45" fill="none" xmlns="http://www.w3.org/2000/svg">
<path d="M6.82939 0L6.79299 1.10608L6.72272 3.25829L6.72172 3.26664C6.72122 3.27429 6.72072 3.28524 6.72072 3.28689C6.72072 3.29139 6.72072 3.29189 6.72072 3.29189C6.72072 3.29389 6.72072 3.29539 6.72072 3.29539V3.29889C6.72072 3.29889 6.72172 3.24667 6.72072 3.31199V3.31809C6.72022 3.32759 6.72022 3.33359 6.71972 3.35159V3.35309L6.70332 3.85107C6.5256 5.51105 5.23602 6.76763 3.56261 6.86493L1.18709 7.00323L0 7.07217L0.133528 8.27353L0.401919 10.677C0.620624 12.6386 0.922521 14.6039 1.29614 16.3829C3.96432 29.0884 10.376 38.8371 20.0373 44.1503C20.2829 44.2854 20.5144 44.4093 20.7218 44.5138C20.8254 44.5661 20.9284 44.6157 21.0428 44.6676C21.0582 44.6746 21.1082 44.6945 21.1365 44.7069C21.2127 44.7647 21.2889 44.817 21.3581 44.8462C21.7776 45.0236 22.005 44.9988 22.5053 44.9988C23.0058 44.9988 23.269 45.0042 23.655 44.8462C23.7434 44.81 23.84 44.7475 23.9269 44.6841C23.9717 44.6641 24.0348 44.638 24.0628 44.6247C24.2058 44.5565 24.3314 44.4909 24.4589 44.4231H24.4599C24.7234 44.2832 25.0288 44.1131 25.354 43.9275C26.0023 43.5579 26.6985 43.1476 27.2268 42.8002C30.0723 40.9284 32.6123 38.641 34.8102 35.9742C40.1965 29.4385 43.5434 20.5461 44.6109 10.6306V10.6291L44.8699 8.23021L45 7.02898L43.814 6.96228L41.4432 6.82875C39.6393 6.72712 38.2733 5.29236 38.2733 3.43244V1.14445V0.00039506H37.1482H34.8982H22.5005H10.0934H7.91722L6.82939 0Z" fill="#F6C445"/>
<path d="M13.5 20.375L22.5 28.25L31.5 14" stroke="#56358F" stroke-width="4" stroke-linecap="round" stroke-linejoin="round"/>
</svg>
