<svg width="28" height="30" viewBox="0 0 28 30" fill="none" xmlns="http://www.w3.org/2000/svg">
<path fill-rule="evenodd" clip-rule="evenodd" d="M14 12C17.3137 12 20 9.31372 20 6C20 2.68628 17.3137 0 14 0C10.6863 0 8 2.68628 8 6C8 9.31372 10.6863 12 14 12ZM12 24C12 27.3137 9.31372 30 6 30C2.68628 30 0 27.3137 0 24C0 20.6863 2.68628 18 6 18C9.31372 18 12 20.6863 12 24ZM28 24C28 27.3137 25.3137 30 22 30C18.6863 30 16 27.3137 16 24C16 20.6863 18.6863 18 22 18C25.3137 18 28 20.6863 28 24Z" fill="#6B5210"/>
</svg>
