<svg width="60" height="48" viewBox="0 0 60 48" fill="none" xmlns="http://www.w3.org/2000/svg">
<path d="M48.7241 42.0697H11.1777V47.931H48.7241V42.0697Z" fill="#F5CF47"/>
<path d="M49.0425 0.517242H10.7578V27.3118H49.0425V0.517242Z" fill="#90ADD1"/>
<path d="M20.1443 18.4152V9.09988H9.3866C4.21869 9.09988 0 13.3912 0 18.5198V28.2538H59.8V18.5198C59.8 18.4152 59.8 18.4152 59.8 18.3105H20.1443V18.4152Z" fill="#F6C445"/>
<path d="M59.8 30.6611H0V44.1631H59.8V30.6611Z" fill="#F6C445"/>
<path d="M2.84766 34.1151H9.4921" stroke="#082859" stroke-width="2" stroke-miterlimit="10" stroke-linecap="round" stroke-linejoin="round"/>
<path d="M2.84766 37.6738H9.4921" stroke="#082859" stroke-width="2" stroke-miterlimit="10" stroke-linecap="round" stroke-linejoin="round"/>
<path d="M43.9821 39.3484H15.7168V44.5817H43.9821V39.3484Z" fill="#90ADD1"/>
<path d="M14.3438 38.9297H45.3512" stroke="#082859" stroke-width="2" stroke-miterlimit="10" stroke-linecap="round" stroke-linejoin="round"/>
<path d="M10.0195 13.6005C10.7185 13.6005 11.2851 13.0382 11.2851 12.3445C11.2851 11.6509 10.7185 11.0885 10.0195 11.0885C9.32054 11.0885 8.75391 11.6509 8.75391 12.3445C8.75391 13.0382 9.32054 13.6005 10.0195 13.6005Z" fill="#082859"/>
<path d="M14.9765 13.6005C15.6755 13.6005 16.2422 13.0382 16.2422 12.3445C16.2422 11.6509 15.6755 11.0885 14.9765 11.0885C14.2776 11.0885 13.7109 11.6509 13.7109 12.3445C13.7109 13.0382 14.2776 13.6005 14.9765 13.6005Z" fill="#082859"/>
</svg>
