<svg width="19" height="18" viewBox="0 0 19 18" fill="none" xmlns="http://www.w3.org/2000/svg">
<path d="M15.3846 2.64188C13.6817 0.938376 11.4189 -3.05624e-09 9.01322 -3.05624e-09C6.60709 -3.05624e-09 4.34397 0.938376 2.64027 2.64188C0.937575 4.34477 0 6.60709 0 9.01322C0 11.3953 0.962812 13.7085 2.64027 15.3581C4.34437 17.0616 6.60789 18 9.01322 18C9.29964 18 9.58406 17.9858 9.86587 17.9593C9.87969 17.9581 9.89371 17.9575 9.90753 17.9563C10.2006 17.9277 10.4906 17.8846 10.7768 17.8279C10.779 17.8275 10.7814 17.8271 10.7836 17.8267C12.5146 17.483 14.1067 16.636 15.3832 15.3591L15.3834 15.3589C15.3836 15.3587 15.3836 15.3587 15.3836 15.3587C16.8265 13.9406 17.7384 12.0338 17.9676 10.0145C17.9718 9.97683 17.978 9.93958 17.9818 9.90192C18.0114 9.60769 18.0264 9.31106 18.0264 9.01322C18.0264 6.60709 17.0881 4.34437 15.3846 2.64188ZM14.0516 13.1054L8.58199 9.94118C8.27213 9.81219 8.07184 9.49913 8.07184 9.14341V3.56984C8.07184 3.07771 8.4574 2.69195 8.94973 2.69195C9.41621 2.69195 9.79557 3.08553 9.79557 3.56984V8.53852C9.79557 8.61183 9.83442 8.67913 9.89772 8.71598L14.8973 11.6134C14.8981 11.6138 14.8989 11.6142 14.8997 11.6146C15.3145 11.8482 15.4609 12.3685 15.2347 12.8012C15.2137 12.8384 15.1879 12.8723 15.1614 12.9053C15.1546 12.9139 15.1496 12.924 15.1424 12.9322C15.115 12.9638 15.0833 12.9913 15.0513 13.0183C15.0425 13.0257 15.0355 13.0347 15.0262 13.0417C14.9417 13.107 14.8434 13.1563 14.7354 13.1865C14.5067 13.2502 14.2567 13.2206 14.0516 13.1054Z" fill="white"/>
</svg>
